<mxfile host="app.diagrams.net" modified="2023-09-19T07:57:12.164Z" agent="Mozilla/5.0 (Windows NT 10.0; Win64; x64; rv:109.0) Gecko/20100101 Firefox/117.0" etag="KITvD5fzpkp3cXDJCurE" version="21.7.5" type="device">
  <diagram name="Page-1" id="Af7AP3Fj3nr_ey9SDYD-">
    <mxGraphModel dx="1885" dy="1620" grid="1" gridSize="10" guides="1" tooltips="1" connect="1" arrows="1" fold="1" page="1" pageScale="1" pageWidth="850" pageHeight="1100" math="0" shadow="0">
      <root>
        <mxCell id="0" />
        <mxCell id="1" parent="0" />
        <mxCell id="3l47Nc2kNrJPuL0uOXAb-8" style="edgeStyle=orthogonalEdgeStyle;rounded=0;orthogonalLoop=1;jettySize=auto;html=1;exitX=0.5;exitY=1;exitDx=0;exitDy=0;entryX=-0.048;entryY=0.645;entryDx=0;entryDy=0;entryPerimeter=0;" parent="1" source="-pVyr4qSZW9j6nxWmR7E-1" target="HLhZyPjLY0RMyOh3kIm4-85" edge="1">
          <mxGeometry relative="1" as="geometry" />
        </mxCell>
        <mxCell id="-pVyr4qSZW9j6nxWmR7E-1" value="" style="whiteSpace=wrap;html=1;aspect=fixed;fillColor=#f9f7ed;strokeColor=#36393d;" parent="1" vertex="1">
          <mxGeometry x="220" y="280" width="80" height="80" as="geometry" />
        </mxCell>
        <mxCell id="-pVyr4qSZW9j6nxWmR7E-20" value="" style="rounded=0;whiteSpace=wrap;html=1;fillColor=#eeeeee;strokeColor=#36393d;" parent="1" vertex="1">
          <mxGeometry x="530" y="480" width="160" height="70" as="geometry" />
        </mxCell>
        <mxCell id="-pVyr4qSZW9j6nxWmR7E-24" value="&lt;div style=&quot;font-size: 15px;&quot;&gt;&lt;font style=&quot;font-size: 15px;&quot;&gt;&lt;b&gt;&lt;font style=&quot;font-size: 15px;&quot; color=&quot;#000000&quot;&gt;INT&lt;/font&gt;&lt;/b&gt;&lt;/font&gt;&lt;/div&gt;&lt;div style=&quot;font-size: 15px;&quot;&gt;&lt;font style=&quot;font-size: 15px;&quot;&gt;&lt;b&gt;&lt;font style=&quot;font-size: 15px;&quot; color=&quot;#000000&quot;&gt;ALU&lt;/font&gt;&lt;/b&gt;&lt;/font&gt;&lt;/div&gt;" style="shape=trapezoid;perimeter=trapezoidPerimeter;whiteSpace=wrap;html=1;fixedSize=1;fillColor=#eeeeee;strokeColor=#36393d;rotation=90;size=37.86999999999989;" parent="1" vertex="1">
          <mxGeometry x="998.7" y="336.57" width="180.63" height="78.76" as="geometry" />
        </mxCell>
        <mxCell id="-pVyr4qSZW9j6nxWmR7E-25" value="" style="rounded=0;whiteSpace=wrap;html=1;fillColor=#eeeeee;strokeColor=#36393d;" parent="1" vertex="1">
          <mxGeometry x="1040.63" y="477" width="159.37" height="90" as="geometry" />
        </mxCell>
        <mxCell id="HLhZyPjLY0RMyOh3kIm4-180" style="edgeStyle=orthogonalEdgeStyle;rounded=0;orthogonalLoop=1;jettySize=auto;html=1;exitX=0.5;exitY=0;exitDx=0;exitDy=0;" parent="1" source="-pVyr4qSZW9j6nxWmR7E-39" edge="1">
          <mxGeometry relative="1" as="geometry">
            <mxPoint x="1050" y="325.2857142857142" as="targetPoint" />
          </mxGeometry>
        </mxCell>
        <mxCell id="HLhZyPjLY0RMyOh3kIm4-177" style="edgeStyle=orthogonalEdgeStyle;rounded=0;orthogonalLoop=1;jettySize=auto;html=1;exitX=1;exitY=0.5;exitDx=0;exitDy=0;" parent="1" source="-pVyr4qSZW9j6nxWmR7E-41" edge="1">
          <mxGeometry relative="1" as="geometry">
            <mxPoint x="1050" y="426.2222222222222" as="targetPoint" />
          </mxGeometry>
        </mxCell>
        <mxCell id="-pVyr4qSZW9j6nxWmR7E-41" value="" style="rounded=0;whiteSpace=wrap;html=1;fillColor=#eeeeee;strokeColor=#36393d;fontColor=#000000;" parent="1" vertex="1">
          <mxGeometry x="973.39" y="391.25" width="46.61" height="70" as="geometry" />
        </mxCell>
        <mxCell id="-pVyr4qSZW9j6nxWmR7E-43" value="&lt;div style=&quot;font-size: 11px;&quot;&gt;&lt;b&gt;&lt;font style=&quot;font-size: 11px;&quot;&gt;INSTRUCTION MEMORY&lt;br&gt;&lt;/font&gt;&lt;/b&gt;&lt;/div&gt;" style="text;html=1;strokeColor=none;fillColor=none;align=center;verticalAlign=middle;whiteSpace=wrap;rounded=0;fontColor=#000000;" parent="1" vertex="1">
          <mxGeometry x="230" y="305" width="60" height="30" as="geometry" />
        </mxCell>
        <mxCell id="-pVyr4qSZW9j6nxWmR7E-46" value="&lt;div&gt;Register &lt;br&gt;&lt;/div&gt;&lt;div&gt;File&lt;br&gt;&lt;/div&gt;" style="text;html=1;strokeColor=none;fillColor=none;align=center;verticalAlign=middle;whiteSpace=wrap;rounded=0;fontColor=#000000;" parent="1" vertex="1">
          <mxGeometry x="489" y="315" width="60" height="30" as="geometry" />
        </mxCell>
        <mxCell id="-pVyr4qSZW9j6nxWmR7E-49" value="&lt;div style=&quot;font-size: 8px;&quot;&gt;&lt;font style=&quot;font-size: 8px;&quot; color=&quot;#000000&quot;&gt;OP2&lt;/font&gt;&lt;/div&gt;&lt;div style=&quot;font-size: 8px;&quot;&gt;&lt;font style=&quot;font-size: 8px;&quot; color=&quot;#000000&quot;&gt;SEL&lt;/font&gt;&lt;/div&gt;&lt;div style=&quot;font-size: 8px;&quot;&gt;&lt;font style=&quot;font-size: 8px;&quot; color=&quot;#000000&quot;&gt;MUX&lt;br&gt;&lt;/font&gt;&lt;/div&gt;" style="shape=trapezoid;perimeter=trapezoidPerimeter;whiteSpace=wrap;html=1;fixedSize=1;fillColor=#eeeeee;strokeColor=#36393d;rotation=90;" parent="1" vertex="1">
          <mxGeometry x="900" y="411.07" width="70" height="30" as="geometry" />
        </mxCell>
        <mxCell id="-pVyr4qSZW9j6nxWmR7E-51" value="&lt;p style=&quot;line-height: 40%;&quot;&gt;&lt;/p&gt;&lt;div&gt;&lt;b&gt;&lt;font style=&quot;font-size: 8px;&quot;&gt;COMP UNIT&lt;/font&gt;&lt;/b&gt;&lt;/div&gt;&lt;p&gt;&lt;/p&gt;" style="text;html=1;strokeColor=none;fillColor=none;align=center;verticalAlign=middle;whiteSpace=wrap;rounded=0;fontColor=#000000;rotation=0;" parent="1" vertex="1">
          <mxGeometry x="973.3900000000001" y="450" width="48" height="0.56" as="geometry" />
        </mxCell>
        <mxCell id="HLhZyPjLY0RMyOh3kIm4-326" style="edgeStyle=orthogonalEdgeStyle;rounded=0;orthogonalLoop=1;jettySize=auto;html=1;exitX=0.5;exitY=0;exitDx=0;exitDy=0;entryX=0;entryY=0.5;entryDx=0;entryDy=0;" parent="1" source="-pVyr4qSZW9j6nxWmR7E-52" target="HLhZyPjLY0RMyOh3kIm4-325" edge="1">
          <mxGeometry relative="1" as="geometry">
            <mxPoint x="1270" y="376.41666666666674" as="targetPoint" />
          </mxGeometry>
        </mxCell>
        <mxCell id="-pVyr4qSZW9j6nxWmR7E-52" value="&lt;div style=&quot;font-size: 8px;&quot;&gt;&lt;font style=&quot;font-size: 8px;&quot; color=&quot;#000000&quot;&gt;EX OUT&lt;/font&gt;&lt;/div&gt;&lt;div style=&quot;font-size: 8px;&quot;&gt;&lt;font style=&quot;font-size: 8px;&quot; color=&quot;#000000&quot;&gt;SEL MUX&lt;br&gt;&lt;/font&gt;&lt;/div&gt;" style="shape=trapezoid;perimeter=trapezoidPerimeter;whiteSpace=wrap;html=1;fixedSize=1;fillColor=#eeeeee;strokeColor=#36393d;rotation=90;" parent="1" vertex="1">
          <mxGeometry x="1189.63" y="361.25" width="72.5" height="30" as="geometry" />
        </mxCell>
        <mxCell id="-pVyr4qSZW9j6nxWmR7E-58" value="&lt;div&gt;&lt;b&gt;IMM&lt;/b&gt;&lt;/div&gt;&lt;div&gt;&lt;b&gt;GENERATOR&lt;/b&gt;&lt;/div&gt;" style="text;html=1;strokeColor=none;fillColor=none;align=center;verticalAlign=middle;whiteSpace=wrap;rounded=0;fontColor=#000000;" parent="1" vertex="1">
          <mxGeometry x="567" y="500" width="60" height="30" as="geometry" />
        </mxCell>
        <mxCell id="-pVyr4qSZW9j6nxWmR7E-59" value="&lt;b&gt;BRANCH CONTROL UNIT&lt;/b&gt;" style="text;html=1;strokeColor=none;fillColor=none;align=center;verticalAlign=middle;whiteSpace=wrap;rounded=0;fontColor=#000000;spacingTop=1;spacing=2;" parent="1" vertex="1">
          <mxGeometry x="1079.3300000000002" y="501" width="100" height="30" as="geometry" />
        </mxCell>
        <mxCell id="-pVyr4qSZW9j6nxWmR7E-64" value="" style="group" parent="1" vertex="1" connectable="0">
          <mxGeometry x="135" y="190" width="100" height="65" as="geometry" />
        </mxCell>
        <mxCell id="-pVyr4qSZW9j6nxWmR7E-16" value="" style="shape=step;perimeter=stepPerimeter;whiteSpace=wrap;html=1;fixedSize=1;size=10;fillColor=#eeeeee;strokeColor=#36393d;rotation=-180;" parent="-pVyr4qSZW9j6nxWmR7E-64" vertex="1">
          <mxGeometry width="40" height="65" as="geometry" />
        </mxCell>
        <mxCell id="-pVyr4qSZW9j6nxWmR7E-45" value="&lt;font style=&quot;font-size: 10px;&quot; color=&quot;#000000&quot;&gt;Adder&lt;/font&gt;" style="text;html=1;strokeColor=none;fillColor=none;align=center;verticalAlign=middle;whiteSpace=wrap;rounded=0;rotation=-90;" parent="-pVyr4qSZW9j6nxWmR7E-64" vertex="1">
          <mxGeometry x="-5" y="21.25" width="50" height="22.5" as="geometry" />
        </mxCell>
        <mxCell id="-pVyr4qSZW9j6nxWmR7E-75" value="" style="endArrow=classic;html=1;rounded=0;" parent="-pVyr4qSZW9j6nxWmR7E-64" edge="1">
          <mxGeometry width="50" height="50" relative="1" as="geometry">
            <mxPoint x="53" y="21.25" as="sourcePoint" />
            <mxPoint x="33" y="21.25" as="targetPoint" />
          </mxGeometry>
        </mxCell>
        <mxCell id="s9KCdLrKtUiWxoVM0cNU-107" value="4" style="text;html=1;strokeColor=none;fillColor=none;align=center;verticalAlign=middle;whiteSpace=wrap;rounded=0;" parent="-pVyr4qSZW9j6nxWmR7E-64" vertex="1">
          <mxGeometry x="50" y="5" width="20" height="30" as="geometry" />
        </mxCell>
        <mxCell id="-pVyr4qSZW9j6nxWmR7E-66" style="edgeStyle=orthogonalEdgeStyle;rounded=0;orthogonalLoop=1;jettySize=auto;html=1;exitX=1;exitY=0.5;exitDx=0;exitDy=0;entryX=0;entryY=0.5;entryDx=0;entryDy=0;" parent="1" source="-pVyr4qSZW9j6nxWmR7E-2" target="-pVyr4qSZW9j6nxWmR7E-1" edge="1">
          <mxGeometry relative="1" as="geometry" />
        </mxCell>
        <mxCell id="-pVyr4qSZW9j6nxWmR7E-70" value="" style="group" parent="1" vertex="1" connectable="0">
          <mxGeometry x="140" y="290" width="30" height="60" as="geometry" />
        </mxCell>
        <mxCell id="-pVyr4qSZW9j6nxWmR7E-2" value="" style="rounded=0;whiteSpace=wrap;html=1;fillColor=#eeeeee;strokeColor=#36393d;" parent="-pVyr4qSZW9j6nxWmR7E-70" vertex="1">
          <mxGeometry width="30" height="60" as="geometry" />
        </mxCell>
        <mxCell id="-pVyr4qSZW9j6nxWmR7E-42" value="&lt;b&gt;PC&lt;/b&gt;" style="text;html=1;align=center;verticalAlign=middle;whiteSpace=wrap;rounded=0;fontColor=#000000;" parent="-pVyr4qSZW9j6nxWmR7E-70" vertex="1">
          <mxGeometry y="15" width="30" height="30" as="geometry" />
        </mxCell>
        <mxCell id="-pVyr4qSZW9j6nxWmR7E-71" value="" style="group" parent="1" vertex="1" connectable="0">
          <mxGeometry x="80" y="285" width="30" height="70" as="geometry" />
        </mxCell>
        <mxCell id="-pVyr4qSZW9j6nxWmR7E-3" value="" style="shape=trapezoid;perimeter=trapezoidPerimeter;whiteSpace=wrap;html=1;fixedSize=1;fillColor=#eeeeee;strokeColor=#36393d;rotation=90;" parent="-pVyr4qSZW9j6nxWmR7E-71" vertex="1">
          <mxGeometry x="-20" y="20" width="70" height="30" as="geometry" />
        </mxCell>
        <mxCell id="-pVyr4qSZW9j6nxWmR7E-44" value="&lt;div style=&quot;font-size: 8px;&quot;&gt;&lt;font style=&quot;font-size: 8px;&quot;&gt;Branch Select &lt;br&gt;&lt;/font&gt;&lt;/div&gt;&lt;div style=&quot;font-size: 8px;&quot;&gt;&lt;font style=&quot;font-size: 8px;&quot;&gt;Mux&lt;/font&gt;&lt;br&gt;&lt;/div&gt;" style="text;html=1;strokeColor=none;fillColor=none;align=center;verticalAlign=middle;whiteSpace=wrap;rounded=0;fontColor=#000000;" parent="-pVyr4qSZW9j6nxWmR7E-71" vertex="1">
          <mxGeometry y="20" width="30" height="30" as="geometry" />
        </mxCell>
        <mxCell id="-pVyr4qSZW9j6nxWmR7E-72" style="edgeStyle=orthogonalEdgeStyle;rounded=0;orthogonalLoop=1;jettySize=auto;html=1;exitX=1;exitY=0.5;exitDx=0;exitDy=0;entryX=0;entryY=0.5;entryDx=0;entryDy=0;" parent="1" source="-pVyr4qSZW9j6nxWmR7E-44" target="-pVyr4qSZW9j6nxWmR7E-42" edge="1">
          <mxGeometry relative="1" as="geometry" />
        </mxCell>
        <mxCell id="-pVyr4qSZW9j6nxWmR7E-74" value="" style="endArrow=classic;html=1;rounded=0;startArrow=oval;startFill=1;edgeStyle=orthogonalEdgeStyle;entryX=0.25;entryY=1;entryDx=0;entryDy=0;endFill=1;" parent="1" target="-pVyr4qSZW9j6nxWmR7E-45" edge="1">
          <mxGeometry width="50" height="50" relative="1" as="geometry">
            <mxPoint x="200" y="320" as="sourcePoint" />
            <mxPoint x="200" y="240" as="targetPoint" />
            <Array as="points">
              <mxPoint x="200" y="235" />
            </Array>
          </mxGeometry>
        </mxCell>
        <mxCell id="-pVyr4qSZW9j6nxWmR7E-85" value="" style="endArrow=none;html=1;rounded=0;" parent="1" edge="1">
          <mxGeometry width="50" height="50" relative="1" as="geometry">
            <mxPoint x="440" y="670" as="sourcePoint" />
            <mxPoint x="440" y="-270" as="targetPoint" />
          </mxGeometry>
        </mxCell>
        <mxCell id="-pVyr4qSZW9j6nxWmR7E-86" value="" style="endArrow=classic;html=1;rounded=0;entryX=0;entryY=0.5;entryDx=0;entryDy=0;startArrow=oval;startFill=1;" parent="1" edge="1">
          <mxGeometry width="50" height="50" relative="1" as="geometry">
            <mxPoint x="200" y="235" as="sourcePoint" />
            <mxPoint x="360" y="235" as="targetPoint" />
          </mxGeometry>
        </mxCell>
        <mxCell id="-pVyr4qSZW9j6nxWmR7E-96" value="" style="endArrow=classic;html=1;rounded=0;startArrow=oval;startFill=1;entryX=0;entryY=0.5;entryDx=0;entryDy=0;" parent="1" target="-pVyr4qSZW9j6nxWmR7E-108" edge="1">
          <mxGeometry width="50" height="50" relative="1" as="geometry">
            <mxPoint x="440" y="70" as="sourcePoint" />
            <mxPoint x="480" y="70" as="targetPoint" />
          </mxGeometry>
        </mxCell>
        <mxCell id="-pVyr4qSZW9j6nxWmR7E-18" value="" style="whiteSpace=wrap;html=1;aspect=fixed;fillColor=#eeeeee;strokeColor=#36393d;" parent="1" vertex="1">
          <mxGeometry x="480" y="260.32" width="160.20942408376965" height="160.20942408376965" as="geometry" />
        </mxCell>
        <mxCell id="-pVyr4qSZW9j6nxWmR7E-62" value="&lt;div style=&quot;font-size: 15px;&quot;&gt;&lt;font style=&quot;font-size: 15px;&quot;&gt;&lt;b&gt;REGISTER &lt;br&gt;&lt;/b&gt;&lt;/font&gt;&lt;/div&gt;&lt;div style=&quot;font-size: 15px;&quot;&gt;&lt;font style=&quot;font-size: 15px;&quot;&gt;&lt;b&gt;FILE&lt;/b&gt;&lt;/font&gt;&lt;br&gt;&lt;/div&gt;" style="text;html=1;strokeColor=none;fillColor=none;align=center;verticalAlign=middle;whiteSpace=wrap;rounded=0;fontColor=#000000;" parent="1" vertex="1">
          <mxGeometry x="567.375" y="326.255" width="63.75" height="33.75" as="geometry" />
        </mxCell>
        <mxCell id="-pVyr4qSZW9j6nxWmR7E-99" value="WRITE_ADDR" style="text;html=1;strokeColor=none;fillColor=none;align=center;verticalAlign=middle;whiteSpace=wrap;rounded=0;fontColor=#000000;" parent="1" vertex="1">
          <mxGeometry x="489.22" y="279" width="71.78" height="30" as="geometry" />
        </mxCell>
        <mxCell id="-pVyr4qSZW9j6nxWmR7E-100" value="" style="group" parent="1" vertex="1" connectable="0">
          <mxGeometry x="440" y="369" width="100" height="30" as="geometry" />
        </mxCell>
        <mxCell id="-pVyr4qSZW9j6nxWmR7E-88" value="" style="endArrow=classic;html=1;rounded=0;startArrow=oval;startFill=1;" parent="-pVyr4qSZW9j6nxWmR7E-100" edge="1">
          <mxGeometry width="50" height="50" relative="1" as="geometry">
            <mxPoint y="16" as="sourcePoint" />
            <mxPoint x="40" y="16" as="targetPoint" />
          </mxGeometry>
        </mxCell>
        <mxCell id="-pVyr4qSZW9j6nxWmR7E-98" value="&lt;div&gt;ADDR_2&lt;br&gt;&lt;/div&gt;" style="text;html=1;strokeColor=none;fillColor=none;align=center;verticalAlign=middle;whiteSpace=wrap;rounded=0;fontColor=#000000;" parent="-pVyr4qSZW9j6nxWmR7E-100" vertex="1">
          <mxGeometry x="40" width="60" height="30" as="geometry" />
        </mxCell>
        <mxCell id="-pVyr4qSZW9j6nxWmR7E-101" value="" style="group" parent="1" vertex="1" connectable="0">
          <mxGeometry x="440" y="336" width="100" height="30" as="geometry" />
        </mxCell>
        <mxCell id="-pVyr4qSZW9j6nxWmR7E-87" value="" style="endArrow=classic;html=1;rounded=0;startArrow=oval;startFill=1;" parent="-pVyr4qSZW9j6nxWmR7E-101" edge="1">
          <mxGeometry width="50" height="50" relative="1" as="geometry">
            <mxPoint y="17" as="sourcePoint" />
            <mxPoint x="40" y="17" as="targetPoint" />
          </mxGeometry>
        </mxCell>
        <mxCell id="-pVyr4qSZW9j6nxWmR7E-97" value="ADDR_1" style="text;html=1;strokeColor=none;fillColor=none;align=center;verticalAlign=middle;whiteSpace=wrap;rounded=0;fontColor=#000000;" parent="-pVyr4qSZW9j6nxWmR7E-101" vertex="1">
          <mxGeometry x="40" width="60" height="30" as="geometry" />
        </mxCell>
        <mxCell id="-pVyr4qSZW9j6nxWmR7E-102" value="WRITE_DATA" style="text;html=1;strokeColor=none;fillColor=none;align=center;verticalAlign=middle;whiteSpace=wrap;rounded=0;fontColor=#000000;" parent="1" vertex="1">
          <mxGeometry x="477" y="304" width="90" height="30" as="geometry" />
        </mxCell>
        <mxCell id="-pVyr4qSZW9j6nxWmR7E-103" value="WRITE_EN" style="text;html=1;strokeColor=none;fillColor=none;align=center;verticalAlign=middle;whiteSpace=wrap;rounded=0;fontColor=#000000;" parent="1" vertex="1">
          <mxGeometry x="489" y="397" width="71.78" height="30" as="geometry" />
        </mxCell>
        <mxCell id="-pVyr4qSZW9j6nxWmR7E-105" value="" style="endArrow=classic;html=1;rounded=0;startArrow=oval;startFill=1;entryX=0;entryY=0.647;entryDx=0;entryDy=0;entryPerimeter=0;" parent="1" edge="1">
          <mxGeometry width="50" height="50" relative="1" as="geometry">
            <mxPoint x="440" y="32.32" as="sourcePoint" />
            <mxPoint x="490" y="32.32" as="targetPoint" />
          </mxGeometry>
        </mxCell>
        <mxCell id="-pVyr4qSZW9j6nxWmR7E-106" value="" style="endArrow=classic;html=1;rounded=0;startArrow=oval;startFill=1;entryX=0;entryY=0.647;entryDx=0;entryDy=0;entryPerimeter=0;" parent="1" edge="1">
          <mxGeometry width="50" height="50" relative="1" as="geometry">
            <mxPoint x="440" y="-10" as="sourcePoint" />
            <mxPoint x="490" y="-10" as="targetPoint" />
          </mxGeometry>
        </mxCell>
        <mxCell id="-pVyr4qSZW9j6nxWmR7E-109" value="" style="endArrow=classic;html=1;rounded=0;entryX=0.009;entryY=0.577;entryDx=0;entryDy=0;entryPerimeter=0;startArrow=oval;startFill=1;" parent="1" edge="1">
          <mxGeometry width="50" height="50" relative="1" as="geometry">
            <mxPoint x="440" y="520" as="sourcePoint" />
            <mxPoint x="530.44" y="520.3899999999999" as="targetPoint" />
          </mxGeometry>
        </mxCell>
        <mxCell id="-pVyr4qSZW9j6nxWmR7E-110" value="" style="endArrow=classic;html=1;rounded=0;exitX=1;exitY=0.5;exitDx=0;exitDy=0;" parent="1" edge="1">
          <mxGeometry width="50" height="50" relative="1" as="geometry">
            <mxPoint x="390" y="236" as="sourcePoint" />
            <mxPoint x="720.0000000000002" y="236" as="targetPoint" />
          </mxGeometry>
        </mxCell>
        <mxCell id="-pVyr4qSZW9j6nxWmR7E-111" value="DATA_1" style="text;html=1;strokeColor=none;fillColor=none;align=center;verticalAlign=middle;whiteSpace=wrap;rounded=0;fontColor=#000000;" parent="1" vertex="1">
          <mxGeometry x="590" y="275" width="48.78" height="30" as="geometry" />
        </mxCell>
        <mxCell id="-pVyr4qSZW9j6nxWmR7E-112" value="DATA_2" style="text;html=1;strokeColor=none;fillColor=none;align=center;verticalAlign=middle;whiteSpace=wrap;rounded=0;fontColor=#000000;" parent="1" vertex="1">
          <mxGeometry x="590" y="376" width="48.78" height="30" as="geometry" />
        </mxCell>
        <mxCell id="HLhZyPjLY0RMyOh3kIm4-1" value="" style="edgeStyle=orthogonalEdgeStyle;rounded=0;orthogonalLoop=1;jettySize=auto;html=1;entryX=0.881;entryY=0.016;entryDx=0;entryDy=0;entryPerimeter=0;" parent="1" source="-pVyr4qSZW9j6nxWmR7E-113" target="-pVyr4qSZW9j6nxWmR7E-20" edge="1">
          <mxGeometry relative="1" as="geometry">
            <mxPoint x="670" y="450" as="targetPoint" />
            <Array as="points">
              <mxPoint x="670" y="115" />
              <mxPoint x="670" y="481" />
            </Array>
          </mxGeometry>
        </mxCell>
        <mxCell id="HLhZyPjLY0RMyOh3kIm4-4" value="IMM_SEL" style="text;html=1;strokeColor=none;fillColor=none;align=center;verticalAlign=middle;whiteSpace=wrap;rounded=0;fontColor=#000000;" parent="1" vertex="1">
          <mxGeometry x="630" y="480" width="60" height="20" as="geometry" />
        </mxCell>
        <mxCell id="HLhZyPjLY0RMyOh3kIm4-7" style="edgeStyle=orthogonalEdgeStyle;rounded=0;orthogonalLoop=1;jettySize=auto;html=1;entryX=0.004;entryY=0.328;entryDx=0;entryDy=0;entryPerimeter=0;exitX=0.998;exitY=0.559;exitDx=0;exitDy=0;exitPerimeter=0;" parent="1" source="HLhZyPjLY0RMyOh3kIm4-5" edge="1">
          <mxGeometry relative="1" as="geometry">
            <mxPoint x="649.88" y="33.120000000000005" as="sourcePoint" />
            <mxPoint x="719.88" y="33.120000000000005" as="targetPoint" />
          </mxGeometry>
        </mxCell>
        <mxCell id="HLhZyPjLY0RMyOh3kIm4-9" value="" style="endArrow=classic;html=1;rounded=0;entryX=0;entryY=0.5;entryDx=0;entryDy=0;" parent="1" edge="1">
          <mxGeometry width="50" height="50" relative="1" as="geometry">
            <mxPoint x="770" y="236" as="sourcePoint" />
            <mxPoint x="1275" y="236" as="targetPoint" />
          </mxGeometry>
        </mxCell>
        <mxCell id="HLhZyPjLY0RMyOh3kIm4-15" style="edgeStyle=orthogonalEdgeStyle;rounded=0;orthogonalLoop=1;jettySize=auto;html=1;entryX=0.004;entryY=0.328;entryDx=0;entryDy=0;entryPerimeter=0;exitX=1;exitY=0.5;exitDx=0;exitDy=0;" parent="1" source="HLhZyPjLY0RMyOh3kIm4-10" edge="1">
          <mxGeometry relative="1" as="geometry">
            <mxPoint x="650" y="12.290000000000006" as="sourcePoint" />
            <mxPoint x="720" y="12.290000000000006" as="targetPoint" />
          </mxGeometry>
        </mxCell>
        <mxCell id="HLhZyPjLY0RMyOh3kIm4-19" style="edgeStyle=orthogonalEdgeStyle;rounded=0;orthogonalLoop=1;jettySize=auto;html=1;entryX=0.004;entryY=0.328;entryDx=0;entryDy=0;entryPerimeter=0;" parent="1" edge="1">
          <mxGeometry relative="1" as="geometry">
            <mxPoint x="649" y="-26.879999999999995" as="sourcePoint" />
            <mxPoint x="721" y="-26.879999999999995" as="targetPoint" />
          </mxGeometry>
        </mxCell>
        <mxCell id="HLhZyPjLY0RMyOh3kIm4-20" style="edgeStyle=orthogonalEdgeStyle;rounded=0;orthogonalLoop=1;jettySize=auto;html=1;entryX=0.004;entryY=0.328;entryDx=0;entryDy=0;entryPerimeter=0;" parent="1" edge="1">
          <mxGeometry relative="1" as="geometry">
            <mxPoint x="648" y="-47" as="sourcePoint" />
            <mxPoint x="720" y="-47" as="targetPoint" />
          </mxGeometry>
        </mxCell>
        <mxCell id="HLhZyPjLY0RMyOh3kIm4-21" style="edgeStyle=orthogonalEdgeStyle;rounded=0;orthogonalLoop=1;jettySize=auto;html=1;entryX=0.004;entryY=0.328;entryDx=0;entryDy=0;entryPerimeter=0;" parent="1" edge="1">
          <mxGeometry relative="1" as="geometry">
            <mxPoint x="649" y="-66" as="sourcePoint" />
            <mxPoint x="721" y="-66" as="targetPoint" />
          </mxGeometry>
        </mxCell>
        <mxCell id="HLhZyPjLY0RMyOh3kIm4-22" style="edgeStyle=orthogonalEdgeStyle;rounded=0;orthogonalLoop=1;jettySize=auto;html=1;entryX=0.004;entryY=0.328;entryDx=0;entryDy=0;entryPerimeter=0;exitX=1;exitY=0.5;exitDx=0;exitDy=0;" parent="1" edge="1">
          <mxGeometry relative="1" as="geometry">
            <mxPoint x="649" y="-6.5" as="sourcePoint" />
            <mxPoint x="720" y="-6.209999999999994" as="targetPoint" />
          </mxGeometry>
        </mxCell>
        <mxCell id="HLhZyPjLY0RMyOh3kIm4-24" value="" style="endArrow=classic;html=1;rounded=0;entryX=-0.11;entryY=0.581;entryDx=0;entryDy=0;entryPerimeter=0;exitX=1.001;exitY=0.373;exitDx=0;exitDy=0;exitPerimeter=0;" parent="1" edge="1">
          <mxGeometry width="50" height="50" relative="1" as="geometry">
            <mxPoint x="640.3696335078535" y="290.0781151832459" as="sourcePoint" />
            <mxPoint x="719.9999999999999" y="290.0000000000002" as="targetPoint" />
          </mxGeometry>
        </mxCell>
        <mxCell id="HLhZyPjLY0RMyOh3kIm4-46" style="edgeStyle=orthogonalEdgeStyle;rounded=0;orthogonalLoop=1;jettySize=auto;html=1;exitX=0.997;exitY=0.818;exitDx=0;exitDy=0;exitPerimeter=0;" parent="1" edge="1">
          <mxGeometry relative="1" as="geometry">
            <mxPoint x="649.48" y="74.71000000000001" as="sourcePoint" />
            <mxPoint x="720.48" y="74.71000000000001" as="targetPoint" />
          </mxGeometry>
        </mxCell>
        <mxCell id="HLhZyPjLY0RMyOh3kIm4-82" value="" style="group" parent="1" vertex="1" connectable="0">
          <mxGeometry x="1530" y="350" width="262.5" height="262.5" as="geometry" />
        </mxCell>
        <mxCell id="-pVyr4qSZW9j6nxWmR7E-26" value="" style="whiteSpace=wrap;html=1;aspect=fixed;fillColor=#f9f7ed;strokeColor=#36393d;" parent="HLhZyPjLY0RMyOh3kIm4-82" vertex="1">
          <mxGeometry width="262.5" height="262.5" as="geometry" />
        </mxCell>
        <mxCell id="-pVyr4qSZW9j6nxWmR7E-54" value="&lt;font style=&quot;font-size: 15px;&quot;&gt;&lt;b&gt;DATA_MEMORY&lt;/b&gt;&lt;/font&gt;" style="text;html=1;strokeColor=none;fillColor=none;align=center;verticalAlign=middle;whiteSpace=wrap;rounded=0;fontColor=#000000;" parent="HLhZyPjLY0RMyOh3kIm4-82" vertex="1">
          <mxGeometry x="82.38" y="170" width="97.75" height="42.5" as="geometry" />
        </mxCell>
        <mxCell id="s9KCdLrKtUiWxoVM0cNU-60" value="ADDRESS" style="text;html=1;strokeColor=none;fillColor=none;align=center;verticalAlign=middle;whiteSpace=wrap;rounded=0;" parent="HLhZyPjLY0RMyOh3kIm4-82" vertex="1">
          <mxGeometry x="1" y="20" width="64" height="15" as="geometry" />
        </mxCell>
        <mxCell id="s9KCdLrKtUiWxoVM0cNU-61" value="WRITE_EN" style="text;html=1;strokeColor=none;fillColor=none;align=center;verticalAlign=middle;whiteSpace=wrap;rounded=0;" parent="HLhZyPjLY0RMyOh3kIm4-82" vertex="1">
          <mxGeometry x="50" y="5" width="64" height="15" as="geometry" />
        </mxCell>
        <mxCell id="s9KCdLrKtUiWxoVM0cNU-62" value="READ_EN" style="text;html=1;strokeColor=none;fillColor=none;align=center;verticalAlign=middle;whiteSpace=wrap;rounded=0;" parent="HLhZyPjLY0RMyOh3kIm4-82" vertex="1">
          <mxGeometry x="150" y="5" width="64" height="15" as="geometry" />
        </mxCell>
        <mxCell id="s9KCdLrKtUiWxoVM0cNU-63" value="WRITE_DATA" style="text;html=1;strokeColor=none;fillColor=none;align=center;verticalAlign=middle;whiteSpace=wrap;rounded=0;" parent="HLhZyPjLY0RMyOh3kIm4-82" vertex="1">
          <mxGeometry x="3" y="123.75" width="79" height="15" as="geometry" />
        </mxCell>
        <mxCell id="s9KCdLrKtUiWxoVM0cNU-64" value="READ_DATA" style="text;html=1;strokeColor=none;fillColor=none;align=center;verticalAlign=middle;whiteSpace=wrap;rounded=0;" parent="HLhZyPjLY0RMyOh3kIm4-82" vertex="1">
          <mxGeometry x="170" y="108.75" width="79" height="15" as="geometry" />
        </mxCell>
        <mxCell id="3l47Nc2kNrJPuL0uOXAb-1" value="BUSYWAIT" style="text;html=1;strokeColor=none;fillColor=none;align=center;verticalAlign=middle;whiteSpace=wrap;rounded=0;" parent="HLhZyPjLY0RMyOh3kIm4-82" vertex="1">
          <mxGeometry x="183.13" y="50" width="60" height="30" as="geometry" />
        </mxCell>
        <mxCell id="-I9MUBenOoTtmsug1_GX-89" value="" style="triangle;whiteSpace=wrap;html=1;rotation=-90;fillColor=#eeeeee;strokeColor=#36393d;" vertex="1" parent="HLhZyPjLY0RMyOh3kIm4-82">
          <mxGeometry x="102" y="249" width="10" height="16" as="geometry" />
        </mxCell>
        <mxCell id="HLhZyPjLY0RMyOh3kIm4-83" value="" style="group" parent="1" vertex="1" connectable="0">
          <mxGeometry x="1520" y="220" width="60" height="65" as="geometry" />
        </mxCell>
        <mxCell id="-pVyr4qSZW9j6nxWmR7E-56" value="" style="shape=step;perimeter=stepPerimeter;whiteSpace=wrap;html=1;fixedSize=1;size=10;fillColor=#eeeeee;strokeColor=#36393d;" parent="HLhZyPjLY0RMyOh3kIm4-83" vertex="1">
          <mxGeometry width="50" height="65" as="geometry" />
        </mxCell>
        <mxCell id="-pVyr4qSZW9j6nxWmR7E-57" value="&lt;font color=&quot;#000000&quot;&gt;Adder&lt;/font&gt;" style="text;html=1;strokeColor=none;fillColor=none;align=center;verticalAlign=middle;whiteSpace=wrap;rounded=0;" parent="HLhZyPjLY0RMyOh3kIm4-83" vertex="1">
          <mxGeometry x="10" y="17.5" width="40" height="30" as="geometry" />
        </mxCell>
        <mxCell id="HLhZyPjLY0RMyOh3kIm4-85" value="" style="rounded=0;whiteSpace=wrap;html=1;fillColor=#eeeeee;strokeColor=#36393d;" parent="1" vertex="1">
          <mxGeometry x="350" y="-240" width="50" height="960" as="geometry" />
        </mxCell>
        <mxCell id="HLhZyPjLY0RMyOh3kIm4-94" value="&lt;div style=&quot;line-height: 40%;&quot;&gt;&lt;font style=&quot;font-size: 5px;&quot; color=&quot;#000000&quot;&gt;PC&lt;/font&gt;&lt;/div&gt;" style="rounded=0;whiteSpace=wrap;html=1;fillColor=#eeeeee;strokeColor=#36393d;horizontal=1;" parent="1" vertex="1">
          <mxGeometry x="350" y="225" width="50" height="20" as="geometry" />
        </mxCell>
        <mxCell id="HLhZyPjLY0RMyOh3kIm4-95" value="&lt;div style=&quot;line-height: 40%;&quot;&gt;&lt;font style=&quot;font-size: 5px;&quot; color=&quot;#000000&quot;&gt;INSTRUCTION&lt;/font&gt;&lt;/div&gt;" style="rounded=0;whiteSpace=wrap;html=1;fillColor=#eeeeee;strokeColor=#36393d;horizontal=1;" parent="1" vertex="1">
          <mxGeometry x="350" y="312" width="50" height="20" as="geometry" />
        </mxCell>
        <mxCell id="HLhZyPjLY0RMyOh3kIm4-103" value="&lt;div style=&quot;line-height: 40%;&quot;&gt;&lt;font style=&quot;font-size: 5px;&quot; color=&quot;#000000&quot;&gt;RESET&lt;/font&gt;&lt;/div&gt;" style="rounded=0;whiteSpace=wrap;html=1;fillColor=#f9f7ed;strokeColor=#36393d;horizontal=1;imageWidth=25;" parent="1" vertex="1">
          <mxGeometry x="350" y="700" width="30" height="20" as="geometry" />
        </mxCell>
        <mxCell id="HLhZyPjLY0RMyOh3kIm4-104" value="" style="endArrow=classic;html=1;rounded=0;" parent="1" edge="1">
          <mxGeometry width="50" height="50" relative="1" as="geometry">
            <mxPoint x="300" y="320" as="sourcePoint" />
            <mxPoint x="350" y="320" as="targetPoint" />
          </mxGeometry>
        </mxCell>
        <mxCell id="HLhZyPjLY0RMyOh3kIm4-106" value="&lt;div style=&quot;line-height: 40%;&quot;&gt;&lt;font style=&quot;font-size: 5px;&quot; color=&quot;#000000&quot;&gt;HOLD&lt;/font&gt;&lt;/div&gt;" style="rounded=0;whiteSpace=wrap;html=1;fillColor=#f9f7ed;strokeColor=#36393d;horizontal=1;" parent="1" vertex="1">
          <mxGeometry x="380" y="700" width="20" height="20" as="geometry" />
        </mxCell>
        <mxCell id="HLhZyPjLY0RMyOh3kIm4-109" value="" style="endArrow=classic;html=1;rounded=0;entryX=0;entryY=0.5;entryDx=0;entryDy=0;startArrow=oval;startFill=1;" parent="1" edge="1">
          <mxGeometry width="50" height="50" relative="1" as="geometry">
            <mxPoint x="440" y="671" as="sourcePoint" />
            <mxPoint x="720" y="670" as="targetPoint" />
          </mxGeometry>
        </mxCell>
        <mxCell id="HLhZyPjLY0RMyOh3kIm4-110" value="" style="endArrow=classic;html=1;rounded=0;entryX=0;entryY=0.5;entryDx=0;entryDy=0;startArrow=oval;startFill=1;" parent="1" edge="1">
          <mxGeometry width="50" height="50" relative="1" as="geometry">
            <mxPoint x="440" y="651" as="sourcePoint" />
            <mxPoint x="720" y="650" as="targetPoint" />
          </mxGeometry>
        </mxCell>
        <mxCell id="HLhZyPjLY0RMyOh3kIm4-111" value="" style="endArrow=classic;html=1;rounded=0;entryX=0;entryY=0.5;entryDx=0;entryDy=0;startArrow=oval;startFill=1;" parent="1" edge="1">
          <mxGeometry width="50" height="50" relative="1" as="geometry">
            <mxPoint x="440" y="631" as="sourcePoint" />
            <mxPoint x="720" y="630" as="targetPoint" />
          </mxGeometry>
        </mxCell>
        <mxCell id="HLhZyPjLY0RMyOh3kIm4-112" style="edgeStyle=orthogonalEdgeStyle;rounded=0;orthogonalLoop=1;jettySize=auto;html=1;exitX=0.997;exitY=0.818;exitDx=0;exitDy=0;exitPerimeter=0;" parent="1" edge="1">
          <mxGeometry relative="1" as="geometry">
            <mxPoint x="649" y="94" as="sourcePoint" />
            <mxPoint x="720" y="94" as="targetPoint" />
          </mxGeometry>
        </mxCell>
        <mxCell id="-pVyr4qSZW9j6nxWmR7E-30" value="" style="rounded=0;whiteSpace=wrap;html=1;fillColor=#eeeeee;strokeColor=#36393d;movable=1;resizable=1;rotatable=1;deletable=1;editable=1;locked=0;connectable=1;" parent="1" vertex="1">
          <mxGeometry x="489" y="-90" width="160" height="220" as="geometry" />
        </mxCell>
        <mxCell id="-pVyr4qSZW9j6nxWmR7E-47" value="&lt;div style=&quot;font-size: 15px;&quot;&gt;&lt;font style=&quot;font-size: 15px;&quot;&gt;&lt;b&gt;CONTROL&lt;/b&gt;&lt;/font&gt;&lt;/div&gt;&lt;div style=&quot;font-size: 15px;&quot;&gt;&lt;font style=&quot;font-size: 15px;&quot;&gt;&lt;b&gt;UNIT&lt;/b&gt;&lt;/font&gt;&lt;br&gt;&lt;/div&gt;" style="text;html=1;strokeColor=none;fillColor=none;align=center;verticalAlign=middle;whiteSpace=wrap;rounded=0;fontColor=#000000;" parent="1" vertex="1">
          <mxGeometry x="504.25" y="85" width="62.75" height="30" as="geometry" />
        </mxCell>
        <mxCell id="-pVyr4qSZW9j6nxWmR7E-104" value="&lt;div&gt;OPCODE&lt;/div&gt;" style="text;html=1;strokeColor=none;fillColor=none;align=center;verticalAlign=middle;whiteSpace=wrap;rounded=0;fontColor=#000000;" parent="1" vertex="1">
          <mxGeometry x="492" y="-24" width="50" height="30" as="geometry" />
        </mxCell>
        <mxCell id="-pVyr4qSZW9j6nxWmR7E-107" value="FUNC 3" style="text;html=1;strokeColor=none;fillColor=none;align=center;verticalAlign=middle;whiteSpace=wrap;rounded=0;fontColor=#000000;" parent="1" vertex="1">
          <mxGeometry x="489" y="17" width="50" height="30" as="geometry" />
        </mxCell>
        <mxCell id="-pVyr4qSZW9j6nxWmR7E-108" value="FUNC 7" style="text;html=1;strokeColor=none;fillColor=none;align=center;verticalAlign=middle;whiteSpace=wrap;rounded=0;fontColor=#000000;" parent="1" vertex="1">
          <mxGeometry x="489" y="55" width="50" height="30" as="geometry" />
        </mxCell>
        <mxCell id="-pVyr4qSZW9j6nxWmR7E-113" value="IMM_SEL" style="text;html=1;strokeColor=none;fillColor=none;align=center;verticalAlign=middle;whiteSpace=wrap;rounded=0;fontColor=#000000;" parent="1" vertex="1">
          <mxGeometry x="590" y="99" width="58" height="30" as="geometry" />
        </mxCell>
        <mxCell id="-pVyr4qSZW9j6nxWmR7E-128" value="OP1_SEL" style="text;html=1;strokeColor=none;fillColor=none;align=center;verticalAlign=middle;whiteSpace=wrap;rounded=0;fontColor=#000000;" parent="1" vertex="1">
          <mxGeometry x="589" y="79" width="59" height="30" as="geometry" />
        </mxCell>
        <mxCell id="-pVyr4qSZW9j6nxWmR7E-129" value="&lt;div&gt;OP2_SEL&lt;/div&gt;" style="text;html=1;strokeColor=none;fillColor=none;align=center;verticalAlign=middle;whiteSpace=wrap;rounded=0;fontColor=#000000;" parent="1" vertex="1">
          <mxGeometry x="589" y="60" width="59" height="30" as="geometry" />
        </mxCell>
        <mxCell id="HLhZyPjLY0RMyOh3kIm4-5" value="ALU_OP" style="text;html=1;strokeColor=none;fillColor=none;align=center;verticalAlign=middle;whiteSpace=wrap;rounded=0;fontColor=#000000;" parent="1" vertex="1">
          <mxGeometry x="597" y="22" width="50" height="20" as="geometry" />
        </mxCell>
        <mxCell id="HLhZyPjLY0RMyOh3kIm4-10" value="BJ_CTRL" style="text;html=1;strokeColor=none;fillColor=none;align=center;verticalAlign=middle;whiteSpace=wrap;rounded=0;fontColor=#000000;" parent="1" vertex="1">
          <mxGeometry x="596" y="2" width="47" height="20" as="geometry" />
        </mxCell>
        <mxCell id="HLhZyPjLY0RMyOh3kIm4-11" value="MEM_WRITE_EN" style="text;html=1;strokeColor=none;fillColor=none;align=center;verticalAlign=middle;whiteSpace=wrap;rounded=0;fontColor=#000000;" parent="1" vertex="1">
          <mxGeometry x="558" y="-17" width="79.5" height="20" as="geometry" />
        </mxCell>
        <mxCell id="HLhZyPjLY0RMyOh3kIm4-12" value="MEM_READ_EN" style="text;html=1;strokeColor=none;fillColor=none;align=center;verticalAlign=middle;whiteSpace=wrap;rounded=0;fontColor=#000000;" parent="1" vertex="1">
          <mxGeometry x="556" y="-37" width="89" height="20" as="geometry" />
        </mxCell>
        <mxCell id="HLhZyPjLY0RMyOh3kIm4-13" value="WB_VALUE_SEL" style="text;html=1;strokeColor=none;fillColor=none;align=center;verticalAlign=middle;whiteSpace=wrap;rounded=0;fontColor=#000000;" parent="1" vertex="1">
          <mxGeometry x="551" y="-58" width="96.5" height="20" as="geometry" />
        </mxCell>
        <mxCell id="HLhZyPjLY0RMyOh3kIm4-14" value="REG_WRITE_EN" style="text;html=1;strokeColor=none;fillColor=none;align=center;verticalAlign=middle;whiteSpace=wrap;rounded=0;fontColor=#000000;" parent="1" vertex="1">
          <mxGeometry x="549" y="-78" width="97" height="20" as="geometry" />
        </mxCell>
        <mxCell id="HLhZyPjLY0RMyOh3kIm4-113" value="COMP_SEL" style="text;html=1;strokeColor=none;fillColor=none;align=center;verticalAlign=middle;whiteSpace=wrap;rounded=0;fontColor=#000000;" parent="1" vertex="1">
          <mxGeometry x="587" y="45" width="50" height="20" as="geometry" />
        </mxCell>
        <mxCell id="HLhZyPjLY0RMyOh3kIm4-115" style="edgeStyle=orthogonalEdgeStyle;rounded=0;orthogonalLoop=1;jettySize=auto;html=1;exitX=0.997;exitY=0.818;exitDx=0;exitDy=0;exitPerimeter=0;" parent="1" edge="1">
          <mxGeometry relative="1" as="geometry">
            <mxPoint x="649.48" y="54" as="sourcePoint" />
            <mxPoint x="720.48" y="54" as="targetPoint" />
          </mxGeometry>
        </mxCell>
        <mxCell id="HLhZyPjLY0RMyOh3kIm4-163" value="&lt;div style=&quot;font-size: 8px;&quot;&gt;&lt;font style=&quot;font-size: 8px;&quot; color=&quot;#000000&quot;&gt;OP1 FWD SEL&lt;br&gt;&lt;/font&gt;&lt;/div&gt;&lt;div style=&quot;font-size: 8px;&quot;&gt;&lt;font style=&quot;font-size: 8px;&quot; color=&quot;#000000&quot;&gt;MUX&lt;br&gt;&lt;/font&gt;&lt;/div&gt;" style="shape=trapezoid;perimeter=trapezoidPerimeter;whiteSpace=wrap;html=1;fixedSize=1;fillColor=#eeeeee;strokeColor=#36393d;rotation=90;" parent="1" vertex="1">
          <mxGeometry x="800.39" y="299" width="89.74" height="30" as="geometry" />
        </mxCell>
        <mxCell id="HLhZyPjLY0RMyOh3kIm4-164" value="" style="endArrow=classic;html=1;rounded=0;entryX=-0.11;entryY=0.581;entryDx=0;entryDy=0;entryPerimeter=0;exitX=1.001;exitY=0.373;exitDx=0;exitDy=0;exitPerimeter=0;" parent="1" edge="1">
          <mxGeometry width="50" height="50" relative="1" as="geometry">
            <mxPoint x="640.3696335078535" y="390.0781151832459" as="sourcePoint" />
            <mxPoint x="719.9999999999999" y="390.0000000000002" as="targetPoint" />
          </mxGeometry>
        </mxCell>
        <mxCell id="HLhZyPjLY0RMyOh3kIm4-166" value="" style="endArrow=classic;html=1;rounded=0;exitX=0.96;exitY=0.7;exitDx=0;exitDy=0;exitPerimeter=0;" parent="1" edge="1">
          <mxGeometry width="50" height="50" relative="1" as="geometry">
            <mxPoint x="770" y="390" as="sourcePoint" />
            <mxPoint x="830" y="390" as="targetPoint" />
          </mxGeometry>
        </mxCell>
        <mxCell id="HLhZyPjLY0RMyOh3kIm4-170" value="" style="endArrow=classic;html=1;rounded=0;exitX=0.96;exitY=0.7;exitDx=0;exitDy=0;exitPerimeter=0;" parent="1" edge="1">
          <mxGeometry width="50" height="50" relative="1" as="geometry">
            <mxPoint x="770" y="290" as="sourcePoint" />
            <mxPoint x="830" y="290" as="targetPoint" />
          </mxGeometry>
        </mxCell>
        <mxCell id="HLhZyPjLY0RMyOh3kIm4-171" value="" style="endArrow=classic;html=1;rounded=0;exitX=0.464;exitY=-0.017;exitDx=0;exitDy=0;exitPerimeter=0;entryX=0.297;entryY=0.981;entryDx=0;entryDy=0;entryPerimeter=0;" parent="1" source="HLhZyPjLY0RMyOh3kIm4-163" target="-pVyr4qSZW9j6nxWmR7E-39" edge="1">
          <mxGeometry width="50" height="50" relative="1" as="geometry">
            <mxPoint x="870" y="310" as="sourcePoint" />
            <mxPoint x="920" y="310" as="targetPoint" />
          </mxGeometry>
        </mxCell>
        <mxCell id="HLhZyPjLY0RMyOh3kIm4-172" value="" style="endArrow=classic;html=1;rounded=0;exitX=0.442;exitY=0.03;exitDx=0;exitDy=0;exitPerimeter=0;entryX=0.25;entryY=1;entryDx=0;entryDy=0;" parent="1" source="HLhZyPjLY0RMyOh3kIm4-162" target="-pVyr4qSZW9j6nxWmR7E-49" edge="1">
          <mxGeometry width="50" height="50" relative="1" as="geometry">
            <mxPoint x="869.9900000000001" y="410.00481999999965" as="sourcePoint" />
            <mxPoint x="900" y="410" as="targetPoint" />
          </mxGeometry>
        </mxCell>
        <mxCell id="HLhZyPjLY0RMyOh3kIm4-173" value="" style="endArrow=classic;html=1;rounded=0;edgeStyle=orthogonalEdgeStyle;entryX=0.685;entryY=1.011;entryDx=0;entryDy=0;entryPerimeter=0;startArrow=oval;startFill=1;" parent="1" target="-pVyr4qSZW9j6nxWmR7E-39" edge="1">
          <mxGeometry width="50" height="50" relative="1" as="geometry">
            <mxPoint x="880" y="235" as="sourcePoint" />
            <mxPoint x="880" y="335" as="targetPoint" />
            <Array as="points">
              <mxPoint x="880" y="338" />
            </Array>
          </mxGeometry>
        </mxCell>
        <mxCell id="HLhZyPjLY0RMyOh3kIm4-174" value="" style="endArrow=classic;html=1;rounded=0;entryX=0;entryY=0.5;entryDx=0;entryDy=0;" parent="1" source="-pVyr4qSZW9j6nxWmR7E-20" target="HLhZyPjLY0RMyOh3kIm4-53" edge="1">
          <mxGeometry width="50" height="50" relative="1" as="geometry">
            <mxPoint x="680" y="530" as="sourcePoint" />
            <mxPoint x="730" y="480" as="targetPoint" />
          </mxGeometry>
        </mxCell>
        <mxCell id="HLhZyPjLY0RMyOh3kIm4-175" value="" style="endArrow=classic;html=1;rounded=0;entryX=0.702;entryY=1.007;entryDx=0;entryDy=0;entryPerimeter=0;" parent="1" target="-pVyr4qSZW9j6nxWmR7E-49" edge="1">
          <mxGeometry width="50" height="50" relative="1" as="geometry">
            <mxPoint x="770" y="520" as="sourcePoint" />
            <mxPoint x="880" y="440" as="targetPoint" />
            <Array as="points">
              <mxPoint x="870" y="520" />
              <mxPoint x="870" y="440" />
            </Array>
          </mxGeometry>
        </mxCell>
        <mxCell id="HLhZyPjLY0RMyOh3kIm4-176" value="" style="endArrow=classic;html=1;rounded=0;entryX=0;entryY=0.5;entryDx=0;entryDy=0;exitX=0.5;exitY=0;exitDx=0;exitDy=0;" parent="1" source="-pVyr4qSZW9j6nxWmR7E-49" target="-pVyr4qSZW9j6nxWmR7E-41" edge="1">
          <mxGeometry width="50" height="50" relative="1" as="geometry">
            <mxPoint x="932" y="426" as="sourcePoint" />
            <mxPoint x="980" y="380" as="targetPoint" />
          </mxGeometry>
        </mxCell>
        <mxCell id="HLhZyPjLY0RMyOh3kIm4-182" value="" style="endArrow=classic;html=1;rounded=0;" parent="1" edge="1">
          <mxGeometry width="50" height="50" relative="1" as="geometry">
            <mxPoint x="1129" y="359.65" as="sourcePoint" />
            <mxPoint x="1210" y="360" as="targetPoint" />
          </mxGeometry>
        </mxCell>
        <mxCell id="HLhZyPjLY0RMyOh3kIm4-183" value="" style="endArrow=classic;html=1;rounded=0;exitX=0.542;exitY=0.018;exitDx=0;exitDy=0;exitPerimeter=0;entryX=0.809;entryY=-0.01;entryDx=0;entryDy=0;entryPerimeter=0;" parent="1" target="-pVyr4qSZW9j6nxWmR7E-25" edge="1">
          <mxGeometry width="50" height="50" relative="1" as="geometry">
            <mxPoint x="1127.24732" y="391.2464599999998" as="sourcePoint" />
            <mxPoint x="1170" y="510" as="targetPoint" />
            <Array as="points">
              <mxPoint x="1170.27" y="391.71" />
            </Array>
          </mxGeometry>
        </mxCell>
        <mxCell id="HLhZyPjLY0RMyOh3kIm4-185" value="" style="endArrow=classic;html=1;rounded=0;startArrow=oval;startFill=1;" parent="1" edge="1">
          <mxGeometry width="50" height="50" relative="1" as="geometry">
            <mxPoint x="880" y="337.57" as="sourcePoint" />
            <mxPoint x="1040" y="513.57" as="targetPoint" />
            <Array as="points">
              <mxPoint x="880" y="513.57" />
            </Array>
          </mxGeometry>
        </mxCell>
        <mxCell id="HLhZyPjLY0RMyOh3kIm4-186" value="" style="endArrow=classic;html=1;rounded=0;startArrow=oval;startFill=1;" parent="1" edge="1">
          <mxGeometry width="50" height="50" relative="1" as="geometry">
            <mxPoint x="870" y="520" as="sourcePoint" />
            <mxPoint x="1040" y="533" as="targetPoint" />
            <Array as="points">
              <mxPoint x="869.63" y="533" />
            </Array>
          </mxGeometry>
        </mxCell>
        <mxCell id="HLhZyPjLY0RMyOh3kIm4-187" value="" style="endArrow=classic;html=1;rounded=0;startArrow=oval;startFill=1;" parent="1" edge="1">
          <mxGeometry width="50" height="50" relative="1" as="geometry">
            <mxPoint x="1380" y="380" as="sourcePoint" />
            <mxPoint x="830" y="310" as="targetPoint" />
            <Array as="points">
              <mxPoint x="1380" y="750" />
              <mxPoint x="800" y="750" />
              <mxPoint x="800" y="310" />
            </Array>
          </mxGeometry>
        </mxCell>
        <mxCell id="HLhZyPjLY0RMyOh3kIm4-188" value="&lt;font color=&quot;#000000&quot;&gt;PC&lt;/font&gt;" style="text;html=1;strokeColor=none;fillColor=none;align=center;verticalAlign=middle;whiteSpace=wrap;rounded=0;" parent="1" vertex="1">
          <mxGeometry x="1040.63" y="506" width="30" height="20" as="geometry" />
        </mxCell>
        <mxCell id="HLhZyPjLY0RMyOh3kIm4-189" value="&lt;font color=&quot;#000000&quot;&gt;IMM&lt;/font&gt;" style="text;html=1;strokeColor=none;fillColor=none;align=center;verticalAlign=middle;whiteSpace=wrap;rounded=0;" parent="1" vertex="1">
          <mxGeometry x="1043.31" y="527" width="30" height="15" as="geometry" />
        </mxCell>
        <mxCell id="HLhZyPjLY0RMyOh3kIm4-190" value="" style="rounded=0;whiteSpace=wrap;html=1;fillColor=#eeeeee;strokeColor=#36393d;" parent="1" vertex="1">
          <mxGeometry x="900" y="797" width="160" height="90" as="geometry" />
        </mxCell>
        <mxCell id="HLhZyPjLY0RMyOh3kIm4-191" value="&lt;div&gt;&lt;b&gt;EX FWD UNIT&lt;/b&gt;&lt;/div&gt;&lt;div&gt;&lt;br&gt;&lt;/div&gt;" style="text;html=1;strokeColor=none;fillColor=none;align=center;verticalAlign=middle;whiteSpace=wrap;rounded=0;fontColor=#000000;" parent="1" vertex="1">
          <mxGeometry x="928" y="834" width="83.31" height="29" as="geometry" />
        </mxCell>
        <mxCell id="HLhZyPjLY0RMyOh3kIm4-194" value="" style="endArrow=classic;html=1;rounded=0;exitX=1;exitY=0.5;exitDx=0;exitDy=0;entryX=-0.008;entryY=0.678;entryDx=0;entryDy=0;entryPerimeter=0;" parent="1" source="HLhZyPjLY0RMyOh3kIm4-54" target="HLhZyPjLY0RMyOh3kIm4-190" edge="1">
          <mxGeometry width="50" height="50" relative="1" as="geometry">
            <mxPoint x="773.24" y="630.98" as="sourcePoint" />
            <mxPoint x="890" y="830" as="targetPoint" />
            <Array as="points">
              <mxPoint x="870" y="630" />
              <mxPoint x="870" y="858" />
            </Array>
          </mxGeometry>
        </mxCell>
        <mxCell id="HLhZyPjLY0RMyOh3kIm4-214" value="" style="endArrow=classic;html=1;rounded=0;startArrow=oval;startFill=1;" parent="1" edge="1">
          <mxGeometry width="50" height="50" relative="1" as="geometry">
            <mxPoint x="810" y="760" as="sourcePoint" />
            <mxPoint x="830" y="330" as="targetPoint" />
            <Array as="points">
              <mxPoint x="810" y="330.26" />
            </Array>
          </mxGeometry>
        </mxCell>
        <mxCell id="HLhZyPjLY0RMyOh3kIm4-216" value="" style="group" parent="1" vertex="1" connectable="0">
          <mxGeometry x="720" y="-236" width="50" height="960" as="geometry" />
        </mxCell>
        <mxCell id="-pVyr4qSZW9j6nxWmR7E-22" value="" style="rounded=0;whiteSpace=wrap;html=1;fillColor=#eeeeee;strokeColor=#36393d;" parent="HLhZyPjLY0RMyOh3kIm4-216" vertex="1">
          <mxGeometry width="50" height="960" as="geometry" />
        </mxCell>
        <mxCell id="HLhZyPjLY0RMyOh3kIm4-33" value="&lt;div style=&quot;line-height: 40%;&quot;&gt;&lt;font style=&quot;font-size: 5px;&quot; color=&quot;#000000&quot;&gt;REG_WRITE_EN&lt;/font&gt;&lt;/div&gt;" style="rounded=0;whiteSpace=wrap;html=1;fillColor=#eeeeee;strokeColor=#36393d;horizontal=1;" parent="HLhZyPjLY0RMyOh3kIm4-216" vertex="1">
          <mxGeometry y="161" width="50" height="20" as="geometry" />
        </mxCell>
        <mxCell id="HLhZyPjLY0RMyOh3kIm4-35" value="&lt;div style=&quot;line-height: 40%;&quot;&gt;&lt;font style=&quot;font-size: 5px;&quot; color=&quot;#000000&quot;&gt;WB_VALUE_SEL&lt;/font&gt;&lt;/div&gt;" style="rounded=0;whiteSpace=wrap;html=1;fillColor=#eeeeee;strokeColor=#36393d;horizontal=1;" parent="HLhZyPjLY0RMyOh3kIm4-216" vertex="1">
          <mxGeometry y="181" width="50" height="20" as="geometry" />
        </mxCell>
        <mxCell id="HLhZyPjLY0RMyOh3kIm4-36" value="&lt;div style=&quot;line-height: 40%;&quot;&gt;&lt;font style=&quot;font-size: 5px;&quot; color=&quot;#000000&quot;&gt;MEM_READ_EN&lt;/font&gt;&lt;/div&gt;" style="rounded=0;whiteSpace=wrap;html=1;fillColor=#eeeeee;strokeColor=#36393d;horizontal=1;" parent="HLhZyPjLY0RMyOh3kIm4-216" vertex="1">
          <mxGeometry y="200" width="50" height="20" as="geometry" />
        </mxCell>
        <mxCell id="HLhZyPjLY0RMyOh3kIm4-37" value="&lt;div style=&quot;line-height: 40%;&quot;&gt;&lt;font style=&quot;font-size: 5px;&quot; color=&quot;#000000&quot;&gt;MEM_WRITE_EN&lt;/font&gt;&lt;/div&gt;" style="rounded=0;whiteSpace=wrap;html=1;fillColor=#eeeeee;strokeColor=#36393d;horizontal=1;" parent="HLhZyPjLY0RMyOh3kIm4-216" vertex="1">
          <mxGeometry y="220" width="50" height="20" as="geometry" />
        </mxCell>
        <mxCell id="HLhZyPjLY0RMyOh3kIm4-38" value="&lt;div style=&quot;line-height: 40%;&quot;&gt;&lt;font style=&quot;font-size: 5px;&quot; color=&quot;#000000&quot;&gt;BJ_CTRL&lt;/font&gt;&lt;/div&gt;" style="rounded=0;whiteSpace=wrap;html=1;fillColor=#eeeeee;strokeColor=#36393d;horizontal=1;" parent="HLhZyPjLY0RMyOh3kIm4-216" vertex="1">
          <mxGeometry y="240" width="50" height="20" as="geometry" />
        </mxCell>
        <mxCell id="HLhZyPjLY0RMyOh3kIm4-39" value="&lt;div style=&quot;line-height: 40%;&quot;&gt;&lt;font style=&quot;font-size: 5px;&quot; color=&quot;#000000&quot;&gt;ALU_OP&lt;/font&gt;&lt;/div&gt;" style="rounded=0;whiteSpace=wrap;html=1;fillColor=#eeeeee;strokeColor=#36393d;horizontal=1;" parent="HLhZyPjLY0RMyOh3kIm4-216" vertex="1">
          <mxGeometry y="260" width="50" height="20" as="geometry" />
        </mxCell>
        <mxCell id="HLhZyPjLY0RMyOh3kIm4-40" value="&lt;div style=&quot;line-height: 40%;&quot;&gt;&lt;font style=&quot;font-size: 5px;&quot; color=&quot;#000000&quot;&gt;OP2_SEL&lt;/font&gt;&lt;/div&gt;" style="rounded=0;whiteSpace=wrap;html=1;fillColor=#eeeeee;strokeColor=#36393d;horizontal=1;" parent="HLhZyPjLY0RMyOh3kIm4-216" vertex="1">
          <mxGeometry y="300" width="50" height="20" as="geometry" />
        </mxCell>
        <mxCell id="HLhZyPjLY0RMyOh3kIm4-42" value="&lt;div style=&quot;line-height: 40%;&quot;&gt;&lt;font style=&quot;font-size: 5px;&quot; color=&quot;#000000&quot;&gt;OP1_SEL&lt;/font&gt;&lt;/div&gt;" style="rounded=0;whiteSpace=wrap;html=1;fillColor=#eeeeee;strokeColor=#36393d;horizontal=1;" parent="HLhZyPjLY0RMyOh3kIm4-216" vertex="1">
          <mxGeometry y="320" width="50" height="20" as="geometry" />
        </mxCell>
        <mxCell id="HLhZyPjLY0RMyOh3kIm4-43" value="&lt;div style=&quot;line-height: 40%;&quot;&gt;&lt;font style=&quot;font-size: 5px;&quot; color=&quot;#000000&quot;&gt;PC&lt;/font&gt;&lt;/div&gt;" style="rounded=0;whiteSpace=wrap;html=1;fillColor=#eeeeee;strokeColor=#36393d;horizontal=1;" parent="HLhZyPjLY0RMyOh3kIm4-216" vertex="1">
          <mxGeometry y="465" width="50" height="20" as="geometry" />
        </mxCell>
        <mxCell id="HLhZyPjLY0RMyOh3kIm4-44" value="&lt;div style=&quot;line-height: 40%;&quot;&gt;&lt;font style=&quot;font-size: 5px;&quot; color=&quot;#000000&quot;&gt;REG_DATA_1&lt;/font&gt;&lt;/div&gt;" style="rounded=0;whiteSpace=wrap;html=1;fillColor=#eeeeee;strokeColor=#36393d;horizontal=1;" parent="HLhZyPjLY0RMyOh3kIm4-216" vertex="1">
          <mxGeometry y="516" width="50" height="20" as="geometry" />
        </mxCell>
        <mxCell id="HLhZyPjLY0RMyOh3kIm4-45" value="&lt;div style=&quot;line-height: 40%;&quot;&gt;&lt;font style=&quot;font-size: 5px;&quot; color=&quot;#000000&quot;&gt;REG_DATA_2&lt;/font&gt;&lt;/div&gt;" style="rounded=0;whiteSpace=wrap;html=1;fillColor=#eeeeee;strokeColor=#36393d;horizontal=1;" parent="HLhZyPjLY0RMyOh3kIm4-216" vertex="1">
          <mxGeometry y="615" width="50" height="20" as="geometry" />
        </mxCell>
        <mxCell id="HLhZyPjLY0RMyOh3kIm4-53" value="&lt;div style=&quot;line-height: 40%;&quot;&gt;&lt;font style=&quot;font-size: 5px;&quot; color=&quot;#000000&quot;&gt;IMM&lt;/font&gt;&lt;/div&gt;" style="rounded=0;whiteSpace=wrap;html=1;fillColor=#eeeeee;strokeColor=#36393d;horizontal=1;" parent="HLhZyPjLY0RMyOh3kIm4-216" vertex="1">
          <mxGeometry y="741" width="50" height="20" as="geometry" />
        </mxCell>
        <mxCell id="HLhZyPjLY0RMyOh3kIm4-54" value="&lt;div style=&quot;line-height: 40%; font-size: 4px;&quot;&gt;&lt;font style=&quot;font-size: 4px;&quot; color=&quot;#000000&quot;&gt;REG_READ_ADDR_&lt;/font&gt;&lt;font style=&quot;font-size: 4px;&quot; color=&quot;#000000&quot;&gt;1&lt;/font&gt;&lt;/div&gt;" style="rounded=0;whiteSpace=wrap;html=1;fillColor=#eeeeee;strokeColor=#36393d;horizontal=1;" parent="HLhZyPjLY0RMyOh3kIm4-216" vertex="1">
          <mxGeometry y="855" width="50" height="20" as="geometry" />
        </mxCell>
        <mxCell id="HLhZyPjLY0RMyOh3kIm4-55" value="&lt;div style=&quot;line-height: 40%; font-size: 4px;&quot;&gt;&lt;font style=&quot;font-size: 4px;&quot; color=&quot;#000000&quot;&gt;REG_READ_ADDR_2&lt;/font&gt;&lt;/div&gt;" style="rounded=0;whiteSpace=wrap;html=1;fillColor=#eeeeee;strokeColor=#36393d;horizontal=1;" parent="HLhZyPjLY0RMyOh3kIm4-216" vertex="1">
          <mxGeometry y="875" width="50" height="20" as="geometry" />
        </mxCell>
        <mxCell id="HLhZyPjLY0RMyOh3kIm4-56" value="&lt;div style=&quot;line-height: 40%; font-size: 4px;&quot;&gt;&lt;font style=&quot;font-size: 4px;&quot; color=&quot;#000000&quot;&gt;REG_WRITE_ADDR&lt;/font&gt;&lt;/div&gt;" style="rounded=0;whiteSpace=wrap;html=1;fillColor=#eeeeee;strokeColor=#36393d;horizontal=1;" parent="HLhZyPjLY0RMyOh3kIm4-216" vertex="1">
          <mxGeometry y="895" width="50" height="20" as="geometry" />
        </mxCell>
        <mxCell id="HLhZyPjLY0RMyOh3kIm4-60" value="&lt;div style=&quot;line-height: 40%;&quot;&gt;&lt;font style=&quot;font-size: 5px;&quot; color=&quot;#000000&quot;&gt;RESET&lt;/font&gt;&lt;/div&gt;" style="rounded=0;whiteSpace=wrap;html=1;fillColor=#f9f7ed;strokeColor=#36393d;horizontal=1;" parent="HLhZyPjLY0RMyOh3kIm4-216" vertex="1">
          <mxGeometry y="940" width="50" height="20" as="geometry" />
        </mxCell>
        <mxCell id="HLhZyPjLY0RMyOh3kIm4-157" value="&lt;div style=&quot;line-height: 40%;&quot;&gt;&lt;font style=&quot;font-size: 5px;&quot; color=&quot;#000000&quot;&gt;COMP_SEL&lt;/font&gt;&lt;/div&gt;" style="rounded=0;whiteSpace=wrap;html=1;fillColor=#eeeeee;strokeColor=#36393d;horizontal=1;" parent="HLhZyPjLY0RMyOh3kIm4-216" vertex="1">
          <mxGeometry y="280" width="50" height="20" as="geometry" />
        </mxCell>
        <mxCell id="3l47Nc2kNrJPuL0uOXAb-12" value="&lt;div style=&quot;line-height: 40%;&quot;&gt;&lt;font style=&quot;font-size: 5px;&quot; color=&quot;#000000&quot;&gt;BUSYWAIT&lt;/font&gt;&lt;/div&gt;" style="rounded=0;whiteSpace=wrap;html=1;fillColor=#eeeeee;strokeColor=#36393d;horizontal=1;" parent="HLhZyPjLY0RMyOh3kIm4-216" vertex="1">
          <mxGeometry width="50" height="20" as="geometry" />
        </mxCell>
        <mxCell id="-I9MUBenOoTtmsug1_GX-4" value="&lt;div style=&quot;line-height: 40%;&quot;&gt;&lt;font style=&quot;font-size: 5px;&quot; color=&quot;#000000&quot;&gt;FUNC3&lt;/font&gt;&lt;/div&gt;" style="rounded=0;whiteSpace=wrap;html=1;fillColor=#eeeeee;strokeColor=#36393d;horizontal=1;" vertex="1" parent="HLhZyPjLY0RMyOh3kIm4-216">
          <mxGeometry y="806" width="50" height="20" as="geometry" />
        </mxCell>
        <mxCell id="-I9MUBenOoTtmsug1_GX-26" value="" style="group" vertex="1" connectable="0" parent="HLhZyPjLY0RMyOh3kIm4-216">
          <mxGeometry y="26" width="50" height="20" as="geometry" />
        </mxCell>
        <mxCell id="-I9MUBenOoTtmsug1_GX-27" value="&lt;div style=&quot;line-height: 40%;&quot;&gt;&lt;font style=&quot;font-size: 5px;&quot; color=&quot;#000000&quot;&gt;CLK&lt;/font&gt;&lt;/div&gt;" style="rounded=0;whiteSpace=wrap;html=1;fillColor=#eeeeee;strokeColor=#36393d;horizontal=1;" vertex="1" parent="-I9MUBenOoTtmsug1_GX-26">
          <mxGeometry width="50" height="20" as="geometry" />
        </mxCell>
        <mxCell id="-I9MUBenOoTtmsug1_GX-28" value="" style="triangle;whiteSpace=wrap;html=1;fillColor=#eeeeee;strokeColor=#36393d;" vertex="1" parent="-I9MUBenOoTtmsug1_GX-26">
          <mxGeometry y="2" width="10" height="16" as="geometry" />
        </mxCell>
        <mxCell id="HLhZyPjLY0RMyOh3kIm4-240" value="" style="endArrow=classic;html=1;rounded=0;entryX=0;entryY=0.5;entryDx=0;entryDy=0;" parent="1" edge="1">
          <mxGeometry width="50" height="50" relative="1" as="geometry">
            <mxPoint x="770" y="-66" as="sourcePoint" />
            <mxPoint x="1275" y="-66" as="targetPoint" />
          </mxGeometry>
        </mxCell>
        <mxCell id="HLhZyPjLY0RMyOh3kIm4-241" value="" style="endArrow=classic;html=1;rounded=0;entryX=0;entryY=0.5;entryDx=0;entryDy=0;" parent="1" edge="1">
          <mxGeometry width="50" height="50" relative="1" as="geometry">
            <mxPoint x="770" y="-47" as="sourcePoint" />
            <mxPoint x="1275" y="-47" as="targetPoint" />
          </mxGeometry>
        </mxCell>
        <mxCell id="HLhZyPjLY0RMyOh3kIm4-242" value="" style="endArrow=classic;html=1;rounded=0;entryX=0;entryY=0.5;entryDx=0;entryDy=0;" parent="1" edge="1">
          <mxGeometry width="50" height="50" relative="1" as="geometry">
            <mxPoint x="770" y="-27" as="sourcePoint" />
            <mxPoint x="1275" y="-27" as="targetPoint" />
          </mxGeometry>
        </mxCell>
        <mxCell id="HLhZyPjLY0RMyOh3kIm4-243" value="" style="endArrow=classic;html=1;rounded=0;entryX=0;entryY=0.5;entryDx=0;entryDy=0;" parent="1" edge="1">
          <mxGeometry width="50" height="50" relative="1" as="geometry">
            <mxPoint x="770" y="-6.29" as="sourcePoint" />
            <mxPoint x="1275" y="-6.29" as="targetPoint" />
          </mxGeometry>
        </mxCell>
        <mxCell id="HLhZyPjLY0RMyOh3kIm4-245" value="" style="endArrow=classic;html=1;rounded=0;entryX=0;entryY=0.25;entryDx=0;entryDy=0;" parent="1" target="-pVyr4qSZW9j6nxWmR7E-56" edge="1">
          <mxGeometry width="50" height="50" relative="1" as="geometry">
            <mxPoint x="1325" y="239.71" as="sourcePoint" />
            <mxPoint x="1520" y="240" as="targetPoint" />
          </mxGeometry>
        </mxCell>
        <mxCell id="HLhZyPjLY0RMyOh3kIm4-247" value="" style="endArrow=classic;html=1;rounded=0;exitX=1;exitY=0.5;exitDx=0;exitDy=0;" parent="1" edge="1">
          <mxGeometry width="50" height="50" relative="1" as="geometry">
            <mxPoint x="1320" y="-27.240000000000002" as="sourcePoint" />
            <mxPoint x="1720" y="350" as="targetPoint" />
            <Array as="points">
              <mxPoint x="1720" y="-27" />
            </Array>
          </mxGeometry>
        </mxCell>
        <mxCell id="HLhZyPjLY0RMyOh3kIm4-248" value="" style="endArrow=classic;html=1;rounded=0;exitX=1;exitY=0.5;exitDx=0;exitDy=0;entryX=0.312;entryY=-0.008;entryDx=0;entryDy=0;entryPerimeter=0;" parent="1" target="-pVyr4qSZW9j6nxWmR7E-26" edge="1">
          <mxGeometry width="50" height="50" relative="1" as="geometry">
            <mxPoint x="1325" y="-7.24" as="sourcePoint" />
            <mxPoint x="1610" y="-7.24" as="targetPoint" />
            <Array as="points">
              <mxPoint x="1610" y="-7" />
            </Array>
          </mxGeometry>
        </mxCell>
        <mxCell id="HLhZyPjLY0RMyOh3kIm4-249" value="&lt;div style=&quot;font-size: 7px;&quot;&gt;&lt;font style=&quot;font-size: 7px;&quot; color=&quot;#000000&quot;&gt;MEM DATA&lt;/font&gt;&lt;/div&gt;&lt;div style=&quot;font-size: 7px;&quot;&gt;&lt;font style=&quot;font-size: 7px;&quot; color=&quot;#000000&quot;&gt;SEL MUX&lt;br&gt;&lt;/font&gt;&lt;/div&gt;" style="shape=trapezoid;perimeter=trapezoidPerimeter;whiteSpace=wrap;html=1;fixedSize=1;fillColor=#eeeeee;strokeColor=#36393d;rotation=90;" parent="1" vertex="1">
          <mxGeometry x="1380" y="469" width="72.5" height="30" as="geometry" />
        </mxCell>
        <mxCell id="HLhZyPjLY0RMyOh3kIm4-272" value="" style="endArrow=classic;html=1;rounded=0;" parent="1" edge="1">
          <mxGeometry width="50" height="50" relative="1" as="geometry">
            <mxPoint x="1320" y="466" as="sourcePoint" />
            <mxPoint x="1400" y="466" as="targetPoint" />
          </mxGeometry>
        </mxCell>
        <mxCell id="HLhZyPjLY0RMyOh3kIm4-273" value="" style="endArrow=classic;html=1;rounded=0;exitX=0.459;exitY=0.008;exitDx=0;exitDy=0;exitPerimeter=0;" parent="1" edge="1">
          <mxGeometry width="50" height="50" relative="1" as="geometry">
            <mxPoint x="1431.01" y="479.99749999999995" as="sourcePoint" />
            <mxPoint x="1530" y="480" as="targetPoint" />
          </mxGeometry>
        </mxCell>
        <mxCell id="HLhZyPjLY0RMyOh3kIm4-219" value="&lt;div style=&quot;line-height: 40%;&quot;&gt;&lt;font style=&quot;font-size: 5px;&quot; color=&quot;#000000&quot;&gt;REG_WRITE_EN&lt;/font&gt;&lt;/div&gt;" style="rounded=0;whiteSpace=wrap;html=1;fillColor=#eeeeee;strokeColor=#36393d;horizontal=1;" parent="1" vertex="1">
          <mxGeometry x="1275" y="-57" width="50" height="20" as="geometry" />
        </mxCell>
        <mxCell id="HLhZyPjLY0RMyOh3kIm4-220" value="&lt;div style=&quot;line-height: 40%;&quot;&gt;&lt;font style=&quot;font-size: 5px;&quot; color=&quot;#000000&quot;&gt;WB_VALUE_SEL&lt;/font&gt;&lt;/div&gt;" style="rounded=0;whiteSpace=wrap;html=1;fillColor=#eeeeee;strokeColor=#36393d;horizontal=1;" parent="1" vertex="1">
          <mxGeometry x="1275" y="-37" width="50" height="20" as="geometry" />
        </mxCell>
        <mxCell id="HLhZyPjLY0RMyOh3kIm4-221" value="&lt;div style=&quot;line-height: 40%;&quot;&gt;&lt;font style=&quot;font-size: 5px;&quot; color=&quot;#000000&quot;&gt;MEM_READ_EN&lt;/font&gt;&lt;/div&gt;" style="rounded=0;whiteSpace=wrap;html=1;fillColor=#eeeeee;strokeColor=#36393d;horizontal=1;" parent="1" vertex="1">
          <mxGeometry x="1275" y="-18" width="50" height="20" as="geometry" />
        </mxCell>
        <mxCell id="HLhZyPjLY0RMyOh3kIm4-222" value="&lt;div style=&quot;line-height: 40%;&quot;&gt;&lt;font style=&quot;font-size: 5px;&quot; color=&quot;#000000&quot;&gt;MEM_WRITE_EN&lt;/font&gt;&lt;/div&gt;" style="rounded=0;whiteSpace=wrap;html=1;fillColor=#eeeeee;strokeColor=#36393d;horizontal=1;" parent="1" vertex="1">
          <mxGeometry x="1275" y="2" width="50" height="20" as="geometry" />
        </mxCell>
        <mxCell id="HLhZyPjLY0RMyOh3kIm4-227" value="&lt;div style=&quot;line-height: 40%;&quot;&gt;&lt;font style=&quot;font-size: 5px;&quot; color=&quot;#000000&quot;&gt;PC&lt;/font&gt;&lt;/div&gt;" style="rounded=0;whiteSpace=wrap;html=1;fillColor=#eeeeee;strokeColor=#36393d;horizontal=1;" parent="1" vertex="1">
          <mxGeometry x="1275" y="247" width="50" height="20" as="geometry" />
        </mxCell>
        <mxCell id="HLhZyPjLY0RMyOh3kIm4-234" value="&lt;div style=&quot;line-height: 40%;&quot;&gt;&lt;font style=&quot;font-size: 5px;&quot; color=&quot;#000000&quot;&gt;RD&lt;/font&gt;&lt;/div&gt;" style="rounded=0;whiteSpace=wrap;html=1;fillColor=#eeeeee;strokeColor=#36393d;horizontal=1;" parent="1" vertex="1">
          <mxGeometry x="1275" y="-102" width="50" height="20" as="geometry" />
        </mxCell>
        <mxCell id="HLhZyPjLY0RMyOh3kIm4-235" value="&lt;div style=&quot;line-height: 40%;&quot;&gt;&lt;font style=&quot;font-size: 5px;&quot; color=&quot;#000000&quot;&gt;FUNC_3&lt;br&gt;&lt;/font&gt;&lt;/div&gt;" style="rounded=0;whiteSpace=wrap;html=1;fillColor=#eeeeee;strokeColor=#36393d;horizontal=1;" parent="1" vertex="1">
          <mxGeometry x="1275" y="697" width="50" height="20" as="geometry" />
        </mxCell>
        <mxCell id="HLhZyPjLY0RMyOh3kIm4-271" value="&lt;div style=&quot;line-height: 40%;&quot;&gt;&lt;font style=&quot;font-size: 5px;&quot; color=&quot;#000000&quot;&gt;REG_DATA_2&lt;/font&gt;&lt;/div&gt;" style="rounded=0;whiteSpace=wrap;html=1;fillColor=#eeeeee;strokeColor=#36393d;horizontal=1;" parent="1" vertex="1">
          <mxGeometry x="1275" y="458" width="50" height="20" as="geometry" />
        </mxCell>
        <mxCell id="HLhZyPjLY0RMyOh3kIm4-348" value="" style="group;fillColor=#eeeeee;strokeColor=#36393d;" parent="1" vertex="1" connectable="0">
          <mxGeometry x="1275" y="-236" width="50" height="960" as="geometry" />
        </mxCell>
        <mxCell id="HLhZyPjLY0RMyOh3kIm4-275" value="" style="rounded=0;whiteSpace=wrap;html=1;fillColor=#eeeeee;strokeColor=#36393d;" parent="HLhZyPjLY0RMyOh3kIm4-348" vertex="1">
          <mxGeometry width="50" height="960" as="geometry" />
        </mxCell>
        <mxCell id="HLhZyPjLY0RMyOh3kIm4-276" value="&lt;div style=&quot;line-height: 40%;&quot;&gt;&lt;font style=&quot;font-size: 5px;&quot; color=&quot;#000000&quot;&gt;REG_WRITE_EN&lt;/font&gt;&lt;/div&gt;" style="rounded=0;whiteSpace=wrap;html=1;fillColor=#eeeeee;strokeColor=#36393d;horizontal=1;" parent="HLhZyPjLY0RMyOh3kIm4-348" vertex="1">
          <mxGeometry y="161" width="50" height="20" as="geometry" />
        </mxCell>
        <mxCell id="HLhZyPjLY0RMyOh3kIm4-277" value="&lt;div style=&quot;line-height: 40%;&quot;&gt;&lt;font style=&quot;font-size: 5px;&quot; color=&quot;#000000&quot;&gt;WB_VALUE_SEL&lt;/font&gt;&lt;/div&gt;" style="rounded=0;whiteSpace=wrap;html=1;fillColor=#eeeeee;strokeColor=#36393d;horizontal=1;" parent="HLhZyPjLY0RMyOh3kIm4-348" vertex="1">
          <mxGeometry y="181" width="50" height="20" as="geometry" />
        </mxCell>
        <mxCell id="HLhZyPjLY0RMyOh3kIm4-278" value="&lt;div style=&quot;line-height: 40%;&quot;&gt;&lt;font style=&quot;font-size: 5px;&quot; color=&quot;#000000&quot;&gt;MEM_READ_EN&lt;/font&gt;&lt;/div&gt;" style="rounded=0;whiteSpace=wrap;html=1;fillColor=#eeeeee;strokeColor=#36393d;horizontal=1;" parent="HLhZyPjLY0RMyOh3kIm4-348" vertex="1">
          <mxGeometry y="200" width="50" height="20" as="geometry" />
        </mxCell>
        <mxCell id="HLhZyPjLY0RMyOh3kIm4-279" value="&lt;div style=&quot;line-height: 40%;&quot;&gt;&lt;font style=&quot;font-size: 5px;&quot; color=&quot;#000000&quot;&gt;MEM_WRITE_EN&lt;/font&gt;&lt;/div&gt;" style="rounded=0;whiteSpace=wrap;html=1;fillColor=#eeeeee;strokeColor=#36393d;horizontal=1;" parent="HLhZyPjLY0RMyOh3kIm4-348" vertex="1">
          <mxGeometry y="220" width="50" height="20" as="geometry" />
        </mxCell>
        <mxCell id="HLhZyPjLY0RMyOh3kIm4-280" value="&lt;div style=&quot;line-height: 40%;&quot;&gt;&lt;font style=&quot;font-size: 5px;&quot; color=&quot;#000000&quot;&gt;PC&lt;/font&gt;&lt;/div&gt;" style="rounded=0;whiteSpace=wrap;html=1;fillColor=#eeeeee;strokeColor=#36393d;horizontal=1;" parent="HLhZyPjLY0RMyOh3kIm4-348" vertex="1">
          <mxGeometry y="461" width="50" height="20" as="geometry" />
        </mxCell>
        <mxCell id="HLhZyPjLY0RMyOh3kIm4-283" value="&lt;div style=&quot;line-height: 40%;&quot;&gt;&lt;font style=&quot;font-size: 5px;&quot; color=&quot;#000000&quot;&gt;REG_DATA_2&lt;/font&gt;&lt;/div&gt;" style="rounded=0;whiteSpace=wrap;html=1;fillColor=#eeeeee;strokeColor=#36393d;horizontal=1;" parent="HLhZyPjLY0RMyOh3kIm4-348" vertex="1">
          <mxGeometry y="691" width="50" height="20" as="geometry" />
        </mxCell>
        <mxCell id="HLhZyPjLY0RMyOh3kIm4-325" value="&lt;div style=&quot;line-height: 40%;&quot;&gt;&lt;font style=&quot;font-size: 5px;&quot; color=&quot;#000000&quot;&gt;ALU_OUT&lt;/font&gt;&lt;/div&gt;" style="rounded=0;whiteSpace=wrap;html=1;fillColor=#eeeeee;strokeColor=#36393d;horizontal=1;" parent="HLhZyPjLY0RMyOh3kIm4-348" vertex="1">
          <mxGeometry y="602" width="50" height="20" as="geometry" />
        </mxCell>
        <mxCell id="HLhZyPjLY0RMyOh3kIm4-193" value="" style="endArrow=classic;html=1;rounded=0;exitX=1.015;exitY=0.556;exitDx=0;exitDy=0;exitPerimeter=0;" parent="HLhZyPjLY0RMyOh3kIm4-348" source="HLhZyPjLY0RMyOh3kIm4-55" edge="1">
          <mxGeometry width="50" height="50" relative="1" as="geometry">
            <mxPoint x="-500" y="886" as="sourcePoint" />
            <mxPoint y="886" as="targetPoint" />
          </mxGeometry>
        </mxCell>
        <mxCell id="s9KCdLrKtUiWxoVM0cNU-8" value="&lt;div style=&quot;line-height: 40%; font-size: 4px;&quot;&gt;&lt;font style=&quot;font-size: 4px;&quot; color=&quot;#000000&quot;&gt;REG_READ_ADDR_2&lt;/font&gt;&lt;/div&gt;" style="rounded=0;whiteSpace=wrap;html=1;fillColor=#eeeeee;strokeColor=#36393d;horizontal=1;" parent="HLhZyPjLY0RMyOh3kIm4-348" vertex="1">
          <mxGeometry y="875" width="50" height="20" as="geometry" />
        </mxCell>
        <mxCell id="s9KCdLrKtUiWxoVM0cNU-9" value="&lt;div style=&quot;line-height: 40%; font-size: 4px;&quot;&gt;&lt;font style=&quot;font-size: 4px;&quot; color=&quot;#000000&quot;&gt;REG_WRITE_ADDR&lt;/font&gt;&lt;/div&gt;" style="rounded=0;whiteSpace=wrap;html=1;fillColor=#eeeeee;strokeColor=#36393d;horizontal=1;" parent="HLhZyPjLY0RMyOh3kIm4-348" vertex="1">
          <mxGeometry y="895" width="50" height="20" as="geometry" />
        </mxCell>
        <mxCell id="3l47Nc2kNrJPuL0uOXAb-53" value="&lt;div style=&quot;line-height: 40%;&quot;&gt;&lt;font style=&quot;font-size: 5px;&quot; color=&quot;#000000&quot;&gt;BUSYWAIT&lt;/font&gt;&lt;/div&gt;" style="rounded=0;whiteSpace=wrap;html=1;fillColor=#eeeeee;strokeColor=#36393d;horizontal=1;" parent="HLhZyPjLY0RMyOh3kIm4-348" vertex="1">
          <mxGeometry width="50" height="20" as="geometry" />
        </mxCell>
        <mxCell id="-I9MUBenOoTtmsug1_GX-78" value="" style="group" vertex="1" connectable="0" parent="HLhZyPjLY0RMyOh3kIm4-348">
          <mxGeometry y="26" width="50" height="20" as="geometry" />
        </mxCell>
        <mxCell id="-I9MUBenOoTtmsug1_GX-79" value="&lt;div style=&quot;line-height: 40%;&quot;&gt;&lt;font style=&quot;font-size: 5px;&quot; color=&quot;#000000&quot;&gt;CLK&lt;/font&gt;&lt;/div&gt;" style="rounded=0;whiteSpace=wrap;html=1;fillColor=#eeeeee;strokeColor=#36393d;horizontal=1;" vertex="1" parent="-I9MUBenOoTtmsug1_GX-78">
          <mxGeometry width="50" height="20" as="geometry" />
        </mxCell>
        <mxCell id="-I9MUBenOoTtmsug1_GX-80" value="" style="triangle;whiteSpace=wrap;html=1;fillColor=#eeeeee;strokeColor=#36393d;" vertex="1" parent="-I9MUBenOoTtmsug1_GX-78">
          <mxGeometry y="2" width="10" height="16" as="geometry" />
        </mxCell>
        <mxCell id="HLhZyPjLY0RMyOh3kIm4-349" value="" style="group;fillColor=#f5f5f5;fontColor=#333333;strokeColor=#666666;" parent="1" vertex="1" connectable="0">
          <mxGeometry x="1940" y="-234" width="50" height="960" as="geometry" />
        </mxCell>
        <mxCell id="HLhZyPjLY0RMyOh3kIm4-350" value="" style="rounded=0;whiteSpace=wrap;html=1;fillColor=#eeeeee;strokeColor=#36393d;" parent="HLhZyPjLY0RMyOh3kIm4-349" vertex="1">
          <mxGeometry width="50" height="960" as="geometry" />
        </mxCell>
        <mxCell id="HLhZyPjLY0RMyOh3kIm4-351" value="&lt;div style=&quot;line-height: 40%;&quot;&gt;&lt;font style=&quot;font-size: 5px;&quot; color=&quot;#000000&quot;&gt;REG_WRITE_EN&lt;/font&gt;&lt;/div&gt;" style="rounded=0;whiteSpace=wrap;html=1;fillColor=#eeeeee;strokeColor=#36393d;horizontal=1;" parent="HLhZyPjLY0RMyOh3kIm4-349" vertex="1">
          <mxGeometry y="161" width="50" height="20" as="geometry" />
        </mxCell>
        <mxCell id="HLhZyPjLY0RMyOh3kIm4-352" value="&lt;div style=&quot;line-height: 40%;&quot;&gt;&lt;font style=&quot;font-size: 5px;&quot; color=&quot;#000000&quot;&gt;WB_VALUE_SEL&lt;/font&gt;&lt;/div&gt;" style="rounded=0;whiteSpace=wrap;html=1;fillColor=#eeeeee;strokeColor=#36393d;horizontal=1;" parent="HLhZyPjLY0RMyOh3kIm4-349" vertex="1">
          <mxGeometry y="181" width="50" height="20" as="geometry" />
        </mxCell>
        <mxCell id="HLhZyPjLY0RMyOh3kIm4-353" value="&lt;div style=&quot;line-height: 40%;&quot;&gt;&lt;font style=&quot;font-size: 5px;&quot; color=&quot;#000000&quot;&gt;MEM_READ_EN&lt;/font&gt;&lt;/div&gt;" style="rounded=0;whiteSpace=wrap;html=1;fillColor=#eeeeee;strokeColor=#36393d;horizontal=1;" parent="HLhZyPjLY0RMyOh3kIm4-349" vertex="1">
          <mxGeometry y="200" width="50" height="20" as="geometry" />
        </mxCell>
        <mxCell id="HLhZyPjLY0RMyOh3kIm4-358" value="&lt;div style=&quot;line-height: 40%;&quot;&gt;&lt;font style=&quot;font-size: 5px;&quot; color=&quot;#000000&quot;&gt;MEM_READ&lt;/font&gt;&lt;/div&gt;" style="rounded=0;whiteSpace=wrap;html=1;fillColor=#eeeeee;strokeColor=#36393d;horizontal=1;" parent="HLhZyPjLY0RMyOh3kIm4-349" vertex="1">
          <mxGeometry y="691" width="50" height="20" as="geometry" />
        </mxCell>
        <mxCell id="HLhZyPjLY0RMyOh3kIm4-359" value="&lt;div style=&quot;line-height: 40%;&quot;&gt;&lt;font style=&quot;font-size: 5px;&quot; color=&quot;#000000&quot;&gt;ALU_OUT&lt;/font&gt;&lt;/div&gt;" style="rounded=0;whiteSpace=wrap;html=1;fillColor=#eeeeee;strokeColor=#36393d;horizontal=1;" parent="HLhZyPjLY0RMyOh3kIm4-349" vertex="1">
          <mxGeometry y="602" width="50" height="20" as="geometry" />
        </mxCell>
        <mxCell id="HLhZyPjLY0RMyOh3kIm4-381" value="&lt;div style=&quot;line-height: 40%;&quot;&gt;&lt;font style=&quot;font-size: 5px;&quot; color=&quot;#000000&quot;&gt;PC_4&lt;/font&gt;&lt;/div&gt;" style="rounded=0;whiteSpace=wrap;html=1;fillColor=#eeeeee;strokeColor=#36393d;horizontal=1;" parent="HLhZyPjLY0RMyOh3kIm4-349" vertex="1">
          <mxGeometry y="477" width="50" height="20" as="geometry" />
        </mxCell>
        <mxCell id="s9KCdLrKtUiWxoVM0cNU-52" value="&lt;div style=&quot;line-height: 40%; font-size: 4px;&quot;&gt;&lt;font style=&quot;font-size: 4px;&quot; color=&quot;#000000&quot;&gt;REG_WRITE_ADDR&lt;/font&gt;&lt;/div&gt;" style="rounded=0;whiteSpace=wrap;html=1;fillColor=#eeeeee;strokeColor=#36393d;horizontal=1;" parent="HLhZyPjLY0RMyOh3kIm4-349" vertex="1">
          <mxGeometry y="895" width="50" height="20" as="geometry" />
        </mxCell>
        <mxCell id="-I9MUBenOoTtmsug1_GX-84" value="" style="group" vertex="1" connectable="0" parent="HLhZyPjLY0RMyOh3kIm4-349">
          <mxGeometry y="26" width="50" height="20" as="geometry" />
        </mxCell>
        <mxCell id="-I9MUBenOoTtmsug1_GX-85" value="&lt;div style=&quot;line-height: 40%;&quot;&gt;&lt;font style=&quot;font-size: 5px;&quot; color=&quot;#000000&quot;&gt;CLK&lt;/font&gt;&lt;/div&gt;" style="rounded=0;whiteSpace=wrap;html=1;fillColor=#eeeeee;strokeColor=#36393d;horizontal=1;" vertex="1" parent="-I9MUBenOoTtmsug1_GX-84">
          <mxGeometry width="50" height="20" as="geometry" />
        </mxCell>
        <mxCell id="-I9MUBenOoTtmsug1_GX-86" value="" style="triangle;whiteSpace=wrap;html=1;fillColor=#eeeeee;strokeColor=#36393d;" vertex="1" parent="-I9MUBenOoTtmsug1_GX-84">
          <mxGeometry y="2" width="10" height="16" as="geometry" />
        </mxCell>
        <mxCell id="HLhZyPjLY0RMyOh3kIm4-363" value="" style="endArrow=classic;html=1;rounded=0;entryX=-0.067;entryY=0.457;entryDx=0;entryDy=0;entryPerimeter=0;exitX=1;exitY=0.5;exitDx=0;exitDy=0;" parent="1" edge="1">
          <mxGeometry width="50" height="50" relative="1" as="geometry">
            <mxPoint x="1325" y="-64.57" as="sourcePoint" />
            <mxPoint x="1940" y="-63.43000000000012" as="targetPoint" />
          </mxGeometry>
        </mxCell>
        <mxCell id="HLhZyPjLY0RMyOh3kIm4-365" value="" style="endArrow=classic;html=1;rounded=0;entryX=-0.067;entryY=0.457;entryDx=0;entryDy=0;entryPerimeter=0;exitX=1;exitY=0.5;exitDx=0;exitDy=0;" parent="1" edge="1">
          <mxGeometry width="50" height="50" relative="1" as="geometry">
            <mxPoint x="1325" y="-46.56999999999999" as="sourcePoint" />
            <mxPoint x="1940" y="-45.43000000000012" as="targetPoint" />
          </mxGeometry>
        </mxCell>
        <mxCell id="HLhZyPjLY0RMyOh3kIm4-366" value="" style="endArrow=classic;html=1;rounded=0;entryX=-0.008;entryY=0.107;entryDx=0;entryDy=0;entryPerimeter=0;exitX=1.005;exitY=0.677;exitDx=0;exitDy=0;exitPerimeter=0;" parent="1" source="HLhZyPjLY0RMyOh3kIm4-325" target="-pVyr4qSZW9j6nxWmR7E-26" edge="1">
          <mxGeometry width="50" height="50" relative="1" as="geometry">
            <mxPoint x="1330" y="380" as="sourcePoint" />
            <mxPoint x="1380" y="330" as="targetPoint" />
          </mxGeometry>
        </mxCell>
        <mxCell id="HLhZyPjLY0RMyOh3kIm4-367" value="" style="endArrow=classic;html=1;rounded=0;entryX=0;entryY=0.5;entryDx=0;entryDy=0;startArrow=oval;startFill=1;" parent="1" edge="1">
          <mxGeometry width="50" height="50" relative="1" as="geometry">
            <mxPoint x="1440" y="379" as="sourcePoint" />
            <mxPoint x="1940" y="377" as="targetPoint" />
            <Array as="points">
              <mxPoint x="1440" y="319" />
              <mxPoint x="1860" y="319" />
              <mxPoint x="1860" y="377" />
            </Array>
          </mxGeometry>
        </mxCell>
        <mxCell id="HLhZyPjLY0RMyOh3kIm4-368" value="" style="endArrow=classic;html=1;rounded=0;exitX=1;exitY=0.457;exitDx=0;exitDy=0;exitPerimeter=0;" parent="1" source="-pVyr4qSZW9j6nxWmR7E-26" edge="1">
          <mxGeometry width="50" height="50" relative="1" as="geometry">
            <mxPoint x="1890" y="520" as="sourcePoint" />
            <mxPoint x="1940" y="470" as="targetPoint" />
          </mxGeometry>
        </mxCell>
        <mxCell id="HLhZyPjLY0RMyOh3kIm4-369" value="" style="endArrow=classic;html=1;rounded=0;" parent="1" edge="1">
          <mxGeometry width="50" height="50" relative="1" as="geometry">
            <mxPoint x="1486" y="267" as="sourcePoint" />
            <mxPoint x="1526" y="267" as="targetPoint" />
          </mxGeometry>
        </mxCell>
        <mxCell id="HLhZyPjLY0RMyOh3kIm4-370" value="" style="endArrow=classic;html=1;rounded=0;entryX=0.031;entryY=0.504;entryDx=0;entryDy=0;entryPerimeter=0;" parent="1" edge="1">
          <mxGeometry width="50" height="50" relative="1" as="geometry">
            <mxPoint x="1570" y="252" as="sourcePoint" />
            <mxPoint x="1941.5499999999997" y="251.84000000000015" as="targetPoint" />
          </mxGeometry>
        </mxCell>
        <mxCell id="HLhZyPjLY0RMyOh3kIm4-382" value="&lt;div style=&quot;font-size: 8px;&quot;&gt;&lt;font style=&quot;font-size: 8px;&quot; color=&quot;#000000&quot;&gt;WB SEL MUX&lt;br&gt;&lt;/font&gt;&lt;/div&gt;" style="shape=trapezoid;perimeter=trapezoidPerimeter;whiteSpace=wrap;html=1;fixedSize=1;fillColor=#eeeeee;strokeColor=#36393d;rotation=90;" parent="1" vertex="1">
          <mxGeometry x="2035" y="389.53" width="89.74" height="30" as="geometry" />
        </mxCell>
        <mxCell id="HLhZyPjLY0RMyOh3kIm4-383" value="" style="endArrow=classic;html=1;rounded=0;entryX=0.216;entryY=0.954;entryDx=0;entryDy=0;entryPerimeter=0;" parent="1" target="HLhZyPjLY0RMyOh3kIm4-382" edge="1">
          <mxGeometry width="50" height="50" relative="1" as="geometry">
            <mxPoint x="1990" y="380" as="sourcePoint" />
            <mxPoint x="2040" y="330" as="targetPoint" />
          </mxGeometry>
        </mxCell>
        <mxCell id="HLhZyPjLY0RMyOh3kIm4-384" value="" style="endArrow=classic;html=1;rounded=0;entryX=0.439;entryY=0.984;entryDx=0;entryDy=0;entryPerimeter=0;" parent="1" target="HLhZyPjLY0RMyOh3kIm4-382" edge="1">
          <mxGeometry width="50" height="50" relative="1" as="geometry">
            <mxPoint x="1990" y="470" as="sourcePoint" />
            <mxPoint x="2040" y="420" as="targetPoint" />
            <Array as="points">
              <mxPoint x="2050" y="470" />
              <mxPoint x="2050" y="400" />
            </Array>
          </mxGeometry>
        </mxCell>
        <mxCell id="HLhZyPjLY0RMyOh3kIm4-385" value="" style="endArrow=classic;html=1;rounded=0;entryX=0.661;entryY=0.987;entryDx=0;entryDy=0;entryPerimeter=0;exitX=1.02;exitY=0.372;exitDx=0;exitDy=0;exitPerimeter=0;" parent="1" source="HLhZyPjLY0RMyOh3kIm4-381" target="HLhZyPjLY0RMyOh3kIm4-382" edge="1">
          <mxGeometry width="50" height="50" relative="1" as="geometry">
            <mxPoint x="1990" y="240.53" as="sourcePoint" />
            <mxPoint x="2060" y="420" as="targetPoint" />
            <Array as="points">
              <mxPoint x="2030" y="250" />
              <mxPoint x="2030" y="420.53" />
            </Array>
          </mxGeometry>
        </mxCell>
        <mxCell id="HLhZyPjLY0RMyOh3kIm4-386" value="" style="endArrow=classic;html=1;rounded=0;entryX=0;entryY=0.5;entryDx=0;entryDy=0;startArrow=oval;startFill=1;" parent="1" edge="1">
          <mxGeometry width="50" height="50" relative="1" as="geometry">
            <mxPoint x="1720" y="-27" as="sourcePoint" />
            <mxPoint x="1940" y="-27" as="targetPoint" />
          </mxGeometry>
        </mxCell>
        <mxCell id="HLhZyPjLY0RMyOh3kIm4-388" value="" style="endArrow=classic;html=1;rounded=0;entryX=0;entryY=0.5;entryDx=0;entryDy=0;" parent="1" target="HLhZyPjLY0RMyOh3kIm4-382" edge="1">
          <mxGeometry width="50" height="50" relative="1" as="geometry">
            <mxPoint x="1990" y="-40" as="sourcePoint" />
            <mxPoint x="2080" y="350" as="targetPoint" />
            <Array as="points">
              <mxPoint x="2080" y="-40" />
            </Array>
          </mxGeometry>
        </mxCell>
        <mxCell id="PB3l87BrJmrdITiKwDpd-1" value="" style="rounded=0;whiteSpace=wrap;html=1;" parent="1" vertex="1">
          <mxGeometry x="490" y="-380" width="181" height="150" as="geometry" />
        </mxCell>
        <mxCell id="PB3l87BrJmrdITiKwDpd-2" value="&lt;font style=&quot;font-size: 15px;&quot;&gt;&lt;b&gt;HAZARD DETECTION UNIT&lt;/b&gt;&lt;/font&gt;" style="text;html=1;strokeColor=none;fillColor=none;align=center;verticalAlign=middle;whiteSpace=wrap;rounded=0;" parent="1" vertex="1">
          <mxGeometry x="490" y="-373" width="181" height="30" as="geometry" />
        </mxCell>
        <mxCell id="PB3l87BrJmrdITiKwDpd-3" value="&lt;font style=&quot;font-size: 12px;&quot;&gt;ADDR_1_ID&lt;/font&gt;" style="text;html=1;strokeColor=none;fillColor=none;align=center;verticalAlign=middle;whiteSpace=wrap;rounded=0;fontColor=#000000;" parent="1" vertex="1">
          <mxGeometry x="491.61" y="-280" width="70.39" height="20" as="geometry" />
        </mxCell>
        <mxCell id="PB3l87BrJmrdITiKwDpd-5" value="&lt;font style=&quot;font-size: 12px;&quot;&gt;ADDR_2_ID&lt;/font&gt;" style="text;html=1;strokeColor=none;fillColor=none;align=center;verticalAlign=middle;whiteSpace=wrap;rounded=0;fontColor=#000000;" parent="1" vertex="1">
          <mxGeometry x="493" y="-260" width="70.39" height="20" as="geometry" />
        </mxCell>
        <mxCell id="PB3l87BrJmrdITiKwDpd-6" value="OP2_SEL_ID" style="text;html=1;strokeColor=none;fillColor=none;align=center;verticalAlign=middle;whiteSpace=wrap;rounded=0;fontColor=#000000;" parent="1" vertex="1">
          <mxGeometry x="594.31" y="-260" width="70.39" height="20" as="geometry" />
        </mxCell>
        <mxCell id="PB3l87BrJmrdITiKwDpd-9" value="OP1_SEL_ID" style="text;html=1;strokeColor=none;fillColor=none;align=center;verticalAlign=middle;whiteSpace=wrap;rounded=0;fontColor=#000000;" parent="1" vertex="1">
          <mxGeometry x="594.31" y="-280" width="70.39" height="20" as="geometry" />
        </mxCell>
        <mxCell id="PB3l87BrJmrdITiKwDpd-10" value="REG_WRITE_ADDR_EX" style="text;html=1;strokeColor=none;fillColor=none;align=center;verticalAlign=middle;whiteSpace=wrap;rounded=0;fontColor=#000000;" parent="1" vertex="1">
          <mxGeometry x="529" y="-340" width="140" height="20" as="geometry" />
        </mxCell>
        <mxCell id="PB3l87BrJmrdITiKwDpd-13" value="MEM_READ_EN_EX" style="text;html=1;strokeColor=none;fillColor=none;align=center;verticalAlign=middle;whiteSpace=wrap;rounded=0;fontColor=#000000;" parent="1" vertex="1">
          <mxGeometry x="553" y="-320" width="114" height="20" as="geometry" />
        </mxCell>
        <mxCell id="PB3l87BrJmrdITiKwDpd-15" value="" style="endArrow=classic;html=1;rounded=0;startArrow=oval;startFill=1;entryX=0;entryY=0.647;entryDx=0;entryDy=0;entryPerimeter=0;" parent="1" edge="1">
          <mxGeometry width="50" height="50" relative="1" as="geometry">
            <mxPoint x="440" y="-270.40000000000003" as="sourcePoint" />
            <mxPoint x="490" y="-270.40000000000003" as="targetPoint" />
          </mxGeometry>
        </mxCell>
        <mxCell id="PB3l87BrJmrdITiKwDpd-16" value="" style="endArrow=classic;html=1;rounded=0;startArrow=oval;startFill=1;entryX=0;entryY=0.647;entryDx=0;entryDy=0;entryPerimeter=0;" parent="1" edge="1">
          <mxGeometry width="50" height="50" relative="1" as="geometry">
            <mxPoint x="440" y="-250.4" as="sourcePoint" />
            <mxPoint x="490" y="-250.4" as="targetPoint" />
          </mxGeometry>
        </mxCell>
        <mxCell id="PB3l87BrJmrdITiKwDpd-17" style="edgeStyle=orthogonalEdgeStyle;rounded=0;orthogonalLoop=1;jettySize=auto;html=1;exitX=0.5;exitY=1;exitDx=0;exitDy=0;" parent="1" source="PB3l87BrJmrdITiKwDpd-13" target="PB3l87BrJmrdITiKwDpd-13" edge="1">
          <mxGeometry relative="1" as="geometry" />
        </mxCell>
        <mxCell id="PB3l87BrJmrdITiKwDpd-18" value="" style="endArrow=classic;html=1;rounded=0;entryX=1;entryY=0.75;entryDx=0;entryDy=0;startArrow=oval;startFill=1;" parent="1" target="PB3l87BrJmrdITiKwDpd-1" edge="1">
          <mxGeometry width="50" height="50" relative="1" as="geometry">
            <mxPoint x="700" y="75" as="sourcePoint" />
            <mxPoint x="700" y="-175" as="targetPoint" />
            <Array as="points">
              <mxPoint x="700" y="-267" />
            </Array>
          </mxGeometry>
        </mxCell>
        <mxCell id="PB3l87BrJmrdITiKwDpd-19" value="" style="endArrow=classic;html=1;rounded=0;entryX=1.006;entryY=0.865;entryDx=0;entryDy=0;entryPerimeter=0;startArrow=oval;startFill=1;" parent="1" target="PB3l87BrJmrdITiKwDpd-1" edge="1">
          <mxGeometry width="50" height="50" relative="1" as="geometry">
            <mxPoint x="690" y="93.75" as="sourcePoint" />
            <mxPoint x="690" y="-250" as="targetPoint" />
            <Array as="points">
              <mxPoint x="690" y="-250" />
            </Array>
          </mxGeometry>
        </mxCell>
        <mxCell id="PB3l87BrJmrdITiKwDpd-20" value="" style="endArrow=classic;html=1;rounded=0;entryX=1.005;entryY=0.467;entryDx=0;entryDy=0;entryPerimeter=0;startArrow=oval;startFill=1;" parent="1" target="PB3l87BrJmrdITiKwDpd-1" edge="1">
          <mxGeometry width="50" height="50" relative="1" as="geometry">
            <mxPoint x="800" y="-27" as="sourcePoint" />
            <mxPoint x="800" y="-307" as="targetPoint" />
            <Array as="points">
              <mxPoint x="800" y="-310" />
            </Array>
          </mxGeometry>
        </mxCell>
        <mxCell id="PB3l87BrJmrdITiKwDpd-21" value="" style="endArrow=classic;html=1;rounded=0;entryX=1.011;entryY=0.342;entryDx=0;entryDy=0;entryPerimeter=0;" parent="1" target="PB3l87BrJmrdITiKwDpd-1" edge="1">
          <mxGeometry width="50" height="50" relative="1" as="geometry">
            <mxPoint x="770" y="670" as="sourcePoint" />
            <mxPoint x="790" y="-330.3333333333333" as="targetPoint" />
            <Array as="points">
              <mxPoint x="790" y="670" />
              <mxPoint x="790" y="-330" />
            </Array>
          </mxGeometry>
        </mxCell>
        <mxCell id="PB3l87BrJmrdITiKwDpd-22" value="LU_HAZARD" style="text;html=1;strokeColor=none;fillColor=none;align=center;verticalAlign=middle;whiteSpace=wrap;rounded=0;fontColor=#000000;" parent="1" vertex="1">
          <mxGeometry x="489" y="-300" width="80" height="20" as="geometry" />
        </mxCell>
        <mxCell id="PB3l87BrJmrdITiKwDpd-23" value="" style="rounded=0;whiteSpace=wrap;html=1;fillColor=#eeeeee;strokeColor=#36393d;" parent="1" vertex="1">
          <mxGeometry x="1403" y="797" width="220" height="90" as="geometry" />
        </mxCell>
        <mxCell id="PB3l87BrJmrdITiKwDpd-24" value="&lt;font style=&quot;font-size: 8px;&quot;&gt;OP1_FWD_SEL&lt;/font&gt;" style="text;html=1;strokeColor=none;fillColor=none;align=center;verticalAlign=middle;whiteSpace=wrap;rounded=0;" parent="1" vertex="1">
          <mxGeometry x="900" y="805" width="63.39" height="15" as="geometry" />
        </mxCell>
        <mxCell id="PB3l87BrJmrdITiKwDpd-25" value="&lt;font style=&quot;font-size: 8px;&quot;&gt;OP2_FWD_SEL&lt;/font&gt;" style="text;html=1;strokeColor=none;fillColor=none;align=center;verticalAlign=middle;whiteSpace=wrap;rounded=0;" parent="1" vertex="1">
          <mxGeometry x="898" y="819" width="66.39" height="15" as="geometry" />
        </mxCell>
        <mxCell id="PB3l87BrJmrdITiKwDpd-27" value="&lt;font style=&quot;font-size: 8px;&quot;&gt;ADDR_1_EX&lt;/font&gt;" style="text;html=1;strokeColor=none;fillColor=none;align=center;verticalAlign=middle;whiteSpace=wrap;rounded=0;" parent="1" vertex="1">
          <mxGeometry x="901" y="849.5" width="51.39" height="15" as="geometry" />
        </mxCell>
        <mxCell id="PB3l87BrJmrdITiKwDpd-32" value="" style="endArrow=classic;html=1;rounded=0;entryX=0.947;entryY=0.674;entryDx=0;entryDy=0;entryPerimeter=0;exitX=0.028;exitY=0.602;exitDx=0;exitDy=0;exitPerimeter=0;" parent="1" source="PB3l87BrJmrdITiKwDpd-25" edge="1">
          <mxGeometry width="50" height="50" relative="1" as="geometry">
            <mxPoint x="898" y="801.5" as="sourcePoint" />
            <mxPoint x="840.0400000000001" y="356.11378000000013" as="targetPoint" />
            <Array as="points">
              <mxPoint x="840" y="828" />
            </Array>
          </mxGeometry>
        </mxCell>
        <mxCell id="PB3l87BrJmrdITiKwDpd-30" value="&lt;font style=&quot;font-size: 8px;&quot;&gt;ADDR_2_EX&lt;/font&gt;" style="text;html=1;strokeColor=none;fillColor=none;align=center;verticalAlign=middle;whiteSpace=wrap;rounded=0;" parent="1" vertex="1">
          <mxGeometry x="901" y="867" width="51.39" height="15" as="geometry" />
        </mxCell>
        <mxCell id="HLhZyPjLY0RMyOh3kIm4-162" value="&lt;div style=&quot;font-size: 8px;&quot;&gt;&lt;font style=&quot;font-size: 8px;&quot; color=&quot;#000000&quot;&gt;OP2 FWD SEL&lt;br&gt;&lt;/font&gt;&lt;/div&gt;&lt;div style=&quot;font-size: 8px;&quot;&gt;&lt;font style=&quot;font-size: 8px;&quot; color=&quot;#000000&quot;&gt;MUX&lt;br&gt;&lt;/font&gt;&lt;/div&gt;" style="shape=trapezoid;perimeter=trapezoidPerimeter;whiteSpace=wrap;html=1;fixedSize=1;fillColor=#eeeeee;strokeColor=#36393d;rotation=90;" parent="1" vertex="1">
          <mxGeometry x="800.39" y="400.12" width="89.74" height="30" as="geometry" />
        </mxCell>
        <mxCell id="PB3l87BrJmrdITiKwDpd-33" value="&lt;font style=&quot;font-size: 8px;&quot;&gt;REG_WRITE_ADDR_MEM&lt;/font&gt;" style="text;html=1;strokeColor=none;fillColor=none;align=center;verticalAlign=middle;whiteSpace=wrap;rounded=0;" parent="1" vertex="1">
          <mxGeometry x="978.61" y="800" width="63.39" height="15" as="geometry" />
        </mxCell>
        <mxCell id="PB3l87BrJmrdITiKwDpd-34" value="&lt;font style=&quot;font-size: 8px;&quot;&gt;MEM_WRITE_EN_MEM&lt;/font&gt;" style="text;html=1;strokeColor=none;fillColor=none;align=center;verticalAlign=middle;whiteSpace=wrap;rounded=0;" parent="1" vertex="1">
          <mxGeometry x="982.11" y="815" width="66.39" height="15" as="geometry" />
        </mxCell>
        <mxCell id="PB3l87BrJmrdITiKwDpd-37" value="&lt;font style=&quot;font-size: 8px;&quot;&gt;REG_WRITE_ADDR_WB&lt;/font&gt;" style="text;html=1;strokeColor=none;fillColor=none;align=center;verticalAlign=middle;whiteSpace=wrap;rounded=0;" parent="1" vertex="1">
          <mxGeometry x="981.3100000000001" y="852" width="63.39" height="15" as="geometry" />
        </mxCell>
        <mxCell id="PB3l87BrJmrdITiKwDpd-40" value="&lt;font style=&quot;font-size: 8px;&quot;&gt;MEM_WRITE_EN_WB&lt;/font&gt;" style="text;html=1;strokeColor=none;fillColor=none;align=center;verticalAlign=middle;whiteSpace=wrap;rounded=0;" parent="1" vertex="1">
          <mxGeometry x="983.61" y="866" width="66.39" height="15" as="geometry" />
        </mxCell>
        <mxCell id="PB3l87BrJmrdITiKwDpd-42" value="" style="endArrow=classic;html=1;rounded=0;" parent="1" edge="1">
          <mxGeometry width="50" height="50" relative="1" as="geometry">
            <mxPoint x="840" y="458" as="sourcePoint" />
            <mxPoint x="840" y="454.25" as="targetPoint" />
          </mxGeometry>
        </mxCell>
        <mxCell id="PB3l87BrJmrdITiKwDpd-43" value="MEM FWD UNIT" style="text;html=1;strokeColor=none;fillColor=none;align=center;verticalAlign=middle;whiteSpace=wrap;rounded=0;" parent="1" vertex="1">
          <mxGeometry x="1458" y="867" width="90" height="20" as="geometry" />
        </mxCell>
        <mxCell id="s9KCdLrKtUiWxoVM0cNU-1" value="" style="endArrow=none;html=1;rounded=0;entryX=0;entryY=0.25;entryDx=0;entryDy=0;startArrow=classic;startFill=1;" parent="1" edge="1">
          <mxGeometry width="50" height="50" relative="1" as="geometry">
            <mxPoint x="840" y="813" as="sourcePoint" />
            <mxPoint x="900" y="813.75" as="targetPoint" />
          </mxGeometry>
        </mxCell>
        <mxCell id="s9KCdLrKtUiWxoVM0cNU-2" value="" style="endArrow=none;html=1;rounded=0;entryX=0;entryY=0.25;entryDx=0;entryDy=0;startArrow=classic;startFill=1;" parent="1" edge="1">
          <mxGeometry width="50" height="50" relative="1" as="geometry">
            <mxPoint x="840" y="828" as="sourcePoint" />
            <mxPoint x="900" y="828.75" as="targetPoint" />
          </mxGeometry>
        </mxCell>
        <mxCell id="s9KCdLrKtUiWxoVM0cNU-4" value="" style="endArrow=classic;html=1;rounded=0;entryX=0;entryY=0.5;entryDx=0;entryDy=0;startArrow=oval;startFill=1;" parent="1" edge="1">
          <mxGeometry width="50" height="50" relative="1" as="geometry">
            <mxPoint x="790" y="670" as="sourcePoint" />
            <mxPoint x="1275" y="669" as="targetPoint" />
          </mxGeometry>
        </mxCell>
        <mxCell id="s9KCdLrKtUiWxoVM0cNU-7" value="" style="endArrow=classic;html=1;rounded=0;entryX=-0.008;entryY=0.913;entryDx=0;entryDy=0;entryPerimeter=0;startArrow=oval;startFill=1;" parent="1" target="HLhZyPjLY0RMyOh3kIm4-190" edge="1">
          <mxGeometry width="50" height="50" relative="1" as="geometry">
            <mxPoint x="860" y="650" as="sourcePoint" />
            <mxPoint x="830" y="690" as="targetPoint" />
            <Array as="points">
              <mxPoint x="860" y="879" />
            </Array>
          </mxGeometry>
        </mxCell>
        <mxCell id="s9KCdLrKtUiWxoVM0cNU-10" value="" style="endArrow=classic;html=1;rounded=0;exitX=1;exitY=0.5;exitDx=0;exitDy=0;" parent="1" source="s9KCdLrKtUiWxoVM0cNU-9" edge="1">
          <mxGeometry width="50" height="50" relative="1" as="geometry">
            <mxPoint x="1328" y="669.0000000000002" as="sourcePoint" />
            <mxPoint x="1940" y="670" as="targetPoint" />
          </mxGeometry>
        </mxCell>
        <mxCell id="s9KCdLrKtUiWxoVM0cNU-53" value="&lt;font style=&quot;font-size: 8px;&quot;&gt;MEM_FWD_SEL&lt;/font&gt;" style="text;html=1;strokeColor=none;fillColor=none;align=center;verticalAlign=middle;whiteSpace=wrap;rounded=0;" parent="1" vertex="1">
          <mxGeometry x="1450" y="798" width="110" height="15" as="geometry" />
        </mxCell>
        <mxCell id="s9KCdLrKtUiWxoVM0cNU-54" value="&lt;font style=&quot;font-size: 8px;&quot;&gt;MEM_WRITE_EN_MEM&lt;/font&gt;" style="text;html=1;strokeColor=none;fillColor=none;align=center;verticalAlign=middle;whiteSpace=wrap;rounded=0;" parent="1" vertex="1">
          <mxGeometry x="1409" y="814" width="80" height="15" as="geometry" />
        </mxCell>
        <mxCell id="s9KCdLrKtUiWxoVM0cNU-56" value="&lt;font style=&quot;font-size: 8px;&quot;&gt;REG_WRITE_ADDRESS_MEM&lt;/font&gt;" style="text;html=1;strokeColor=none;fillColor=none;align=center;verticalAlign=middle;whiteSpace=wrap;rounded=0;" parent="1" vertex="1">
          <mxGeometry x="1421" y="838" width="80" height="15" as="geometry" />
        </mxCell>
        <mxCell id="s9KCdLrKtUiWxoVM0cNU-57" value="&lt;font style=&quot;font-size: 8px;&quot;&gt;MEM_READ_EN_WB&lt;/font&gt;" style="text;html=1;strokeColor=none;fillColor=none;align=center;verticalAlign=middle;whiteSpace=wrap;rounded=0;" parent="1" vertex="1">
          <mxGeometry x="1538" y="822" width="80" height="15" as="geometry" />
        </mxCell>
        <mxCell id="s9KCdLrKtUiWxoVM0cNU-58" value="&lt;font style=&quot;font-size: 8px;&quot;&gt;REG_WRITE_ADDRESS_WB&lt;/font&gt;" style="text;html=1;strokeColor=none;fillColor=none;align=center;verticalAlign=middle;whiteSpace=wrap;rounded=0;" parent="1" vertex="1">
          <mxGeometry x="1526" y="850" width="80" height="15" as="geometry" />
        </mxCell>
        <mxCell id="s9KCdLrKtUiWxoVM0cNU-59" value="" style="endArrow=classic;html=1;rounded=0;exitX=0.461;exitY=-0.005;exitDx=0;exitDy=0;exitPerimeter=0;" parent="1" source="PB3l87BrJmrdITiKwDpd-23" edge="1">
          <mxGeometry width="50" height="50" relative="1" as="geometry">
            <mxPoint x="1440" y="610" as="sourcePoint" />
            <mxPoint x="1420" y="510" as="targetPoint" />
            <Array as="points">
              <mxPoint x="1504" y="700" />
              <mxPoint x="1420" y="700" />
            </Array>
          </mxGeometry>
        </mxCell>
        <mxCell id="s9KCdLrKtUiWxoVM0cNU-65" value="" style="endArrow=classic;html=1;rounded=0;entryX=0;entryY=0.5;entryDx=0;entryDy=0;exitX=0.447;exitY=-0.008;exitDx=0;exitDy=0;exitPerimeter=0;" parent="1" source="HLhZyPjLY0RMyOh3kIm4-382" target="-pVyr4qSZW9j6nxWmR7E-102" edge="1">
          <mxGeometry width="50" height="50" relative="1" as="geometry">
            <mxPoint x="2100" y="400" as="sourcePoint" />
            <mxPoint x="470" y="290" as="targetPoint" />
            <Array as="points">
              <mxPoint x="2120" y="400" />
              <mxPoint x="2120" y="760" />
              <mxPoint x="460" y="760" />
              <mxPoint x="460" y="320" />
            </Array>
          </mxGeometry>
        </mxCell>
        <mxCell id="s9KCdLrKtUiWxoVM0cNU-66" value="" style="endArrow=classic;html=1;rounded=0;exitX=0.987;exitY=0.402;exitDx=0;exitDy=0;exitPerimeter=0;" parent="1" source="s9KCdLrKtUiWxoVM0cNU-52" edge="1">
          <mxGeometry width="50" height="50" relative="1" as="geometry">
            <mxPoint x="2050" y="670" as="sourcePoint" />
            <mxPoint x="480" y="291" as="targetPoint" />
            <Array as="points">
              <mxPoint x="2050" y="669" />
              <mxPoint x="2050" y="770" />
              <mxPoint x="450" y="770" />
              <mxPoint x="450" y="291" />
            </Array>
          </mxGeometry>
        </mxCell>
        <mxCell id="s9KCdLrKtUiWxoVM0cNU-67" value="" style="endArrow=classic;html=1;rounded=0;startArrow=oval;startFill=1;" parent="1" edge="1">
          <mxGeometry width="50" height="50" relative="1" as="geometry">
            <mxPoint x="1130" y="770" as="sourcePoint" />
            <mxPoint x="1060" y="860" as="targetPoint" />
            <Array as="points">
              <mxPoint x="1130" y="860" />
            </Array>
          </mxGeometry>
        </mxCell>
        <mxCell id="s9KCdLrKtUiWxoVM0cNU-69" value="" style="endArrow=classic;html=1;rounded=0;startArrow=oval;startFill=1;" parent="1" edge="1">
          <mxGeometry width="50" height="50" relative="1" as="geometry">
            <mxPoint x="1360" y="670" as="sourcePoint" />
            <mxPoint x="1060" y="810" as="targetPoint" />
            <Array as="points">
              <mxPoint x="1360" y="810" />
            </Array>
          </mxGeometry>
        </mxCell>
        <mxCell id="s9KCdLrKtUiWxoVM0cNU-70" value="" style="endArrow=classic;html=1;rounded=0;startArrow=oval;startFill=1;" parent="1" edge="1">
          <mxGeometry width="50" height="50" relative="1" as="geometry">
            <mxPoint x="1350" y="760" as="sourcePoint" />
            <mxPoint x="1400" y="500" as="targetPoint" />
            <Array as="points">
              <mxPoint x="1350" y="500" />
            </Array>
          </mxGeometry>
        </mxCell>
        <mxCell id="s9KCdLrKtUiWxoVM0cNU-71" value="" style="endArrow=classic;html=1;rounded=0;startArrow=oval;startFill=1;" parent="1" edge="1">
          <mxGeometry width="50" height="50" relative="1" as="geometry">
            <mxPoint x="1700" y="770" as="sourcePoint" />
            <mxPoint x="1623" y="860" as="targetPoint" />
            <Array as="points">
              <mxPoint x="1700" y="860" />
            </Array>
          </mxGeometry>
        </mxCell>
        <mxCell id="s9KCdLrKtUiWxoVM0cNU-72" value="" style="endArrow=classic;html=1;rounded=0;startArrow=oval;startFill=1;" parent="1" edge="1">
          <mxGeometry width="50" height="50" relative="1" as="geometry">
            <mxPoint x="1360" y="810" as="sourcePoint" />
            <mxPoint x="1402" y="847" as="targetPoint" />
            <Array as="points">
              <mxPoint x="1360" y="847" />
            </Array>
          </mxGeometry>
        </mxCell>
        <mxCell id="s9KCdLrKtUiWxoVM0cNU-73" value="" style="endArrow=classic;html=1;rounded=0;startArrow=oval;startFill=1;entryX=-0.002;entryY=0.312;entryDx=0;entryDy=0;entryPerimeter=0;" parent="1" target="PB3l87BrJmrdITiKwDpd-23" edge="1">
          <mxGeometry width="50" height="50" relative="1" as="geometry">
            <mxPoint x="1371" y="-7" as="sourcePoint" />
            <mxPoint x="1400" y="820" as="targetPoint" />
            <Array as="points">
              <mxPoint x="1370" y="825" />
            </Array>
          </mxGeometry>
        </mxCell>
        <mxCell id="s9KCdLrKtUiWxoVM0cNU-74" value="" style="endArrow=classic;html=1;rounded=0;entryX=1;entryY=0.367;entryDx=0;entryDy=0;entryPerimeter=0;" parent="1" edge="1">
          <mxGeometry width="50" height="50" relative="1" as="geometry">
            <mxPoint x="1370" y="825" as="sourcePoint" />
            <mxPoint x="1060" y="825.0299999999997" as="targetPoint" />
          </mxGeometry>
        </mxCell>
        <mxCell id="s9KCdLrKtUiWxoVM0cNU-75" value="" style="endArrow=classic;html=1;rounded=0;exitX=1.009;exitY=0.695;exitDx=0;exitDy=0;exitPerimeter=0;entryX=0.187;entryY=0.997;entryDx=0;entryDy=0;entryPerimeter=0;" parent="1" source="HLhZyPjLY0RMyOh3kIm4-353" target="-pVyr4qSZW9j6nxWmR7E-18" edge="1">
          <mxGeometry width="50" height="50" relative="1" as="geometry">
            <mxPoint x="2239" y="-51.1764705882353" as="sourcePoint" />
            <mxPoint x="490" y="920" as="targetPoint" />
            <Array as="points">
              <mxPoint x="2160" y="-20" />
              <mxPoint x="2160" y="930" />
              <mxPoint x="510" y="940" />
            </Array>
          </mxGeometry>
        </mxCell>
        <mxCell id="s9KCdLrKtUiWxoVM0cNU-76" value="" style="endArrow=classic;html=1;rounded=0;exitX=1;exitY=0.5;exitDx=0;exitDy=0;" parent="1" source="HLhZyPjLY0RMyOh3kIm4-351" edge="1">
          <mxGeometry width="50" height="50" relative="1" as="geometry">
            <mxPoint x="2200" y="-82.5" as="sourcePoint" />
            <mxPoint x="1060" y="875" as="targetPoint" />
            <Array as="points">
              <mxPoint x="2200" y="-63" />
              <mxPoint x="2200" y="910" />
              <mxPoint x="1120" y="910" />
              <mxPoint x="1120" y="875" />
            </Array>
          </mxGeometry>
        </mxCell>
        <mxCell id="s9KCdLrKtUiWxoVM0cNU-78" value="" style="group" parent="1" vertex="1" connectable="0">
          <mxGeometry x="22" y="275" width="30" height="70" as="geometry" />
        </mxCell>
        <mxCell id="s9KCdLrKtUiWxoVM0cNU-79" value="" style="shape=trapezoid;perimeter=trapezoidPerimeter;whiteSpace=wrap;html=1;fixedSize=1;fillColor=#eeeeee;strokeColor=#36393d;rotation=90;" parent="s9KCdLrKtUiWxoVM0cNU-78" vertex="1">
          <mxGeometry x="-20" y="20" width="70" height="30" as="geometry" />
        </mxCell>
        <mxCell id="s9KCdLrKtUiWxoVM0cNU-80" value="&lt;div style=&quot;font-size: 8px;&quot;&gt;&lt;font style=&quot;font-size: 8px;&quot;&gt;PC&lt;/font&gt;&lt;/div&gt;&lt;div style=&quot;font-size: 8px;&quot;&gt;&lt;font style=&quot;font-size: 8px;&quot;&gt;Select&amp;nbsp;&lt;/font&gt;&lt;/div&gt;&lt;div style=&quot;font-size: 8px;&quot;&gt;&lt;font style=&quot;font-size: 8px;&quot;&gt;Mux&lt;/font&gt;&lt;br&gt;&lt;/div&gt;" style="text;html=1;strokeColor=none;fillColor=none;align=center;verticalAlign=middle;whiteSpace=wrap;rounded=0;fontColor=#000000;" parent="s9KCdLrKtUiWxoVM0cNU-78" vertex="1">
          <mxGeometry y="20" width="30" height="30" as="geometry" />
        </mxCell>
        <mxCell id="s9KCdLrKtUiWxoVM0cNU-81" value="" style="endArrow=classic;html=1;rounded=0;exitX=1;exitY=0.5;exitDx=0;exitDy=0;" parent="1" source="s9KCdLrKtUiWxoVM0cNU-80" edge="1">
          <mxGeometry width="50" height="50" relative="1" as="geometry">
            <mxPoint x="30" y="360" as="sourcePoint" />
            <mxPoint x="80" y="310" as="targetPoint" />
          </mxGeometry>
        </mxCell>
        <mxCell id="s9KCdLrKtUiWxoVM0cNU-82" value="B_PC" style="text;html=1;strokeColor=none;fillColor=none;align=center;verticalAlign=middle;whiteSpace=wrap;rounded=0;" parent="1" vertex="1">
          <mxGeometry x="1141" y="550" width="30" height="15" as="geometry" />
        </mxCell>
        <mxCell id="s9KCdLrKtUiWxoVM0cNU-83" value="BRANCH_SEL" style="text;html=1;strokeColor=none;fillColor=none;align=center;verticalAlign=middle;whiteSpace=wrap;rounded=0;" parent="1" vertex="1">
          <mxGeometry x="1141" y="535" width="30" height="15" as="geometry" />
        </mxCell>
        <mxCell id="s9KCdLrKtUiWxoVM0cNU-87" value="" style="endArrow=classic;html=1;rounded=0;entryX=-0.013;entryY=0.163;entryDx=0;entryDy=0;entryPerimeter=0;startArrow=oval;startFill=1;" parent="1" target="s9KCdLrKtUiWxoVM0cNU-80" edge="1">
          <mxGeometry width="50" height="50" relative="1" as="geometry">
            <mxPoint x="200" y="270" as="sourcePoint" />
            <mxPoint x="20" y="300" as="targetPoint" />
            <Array as="points">
              <mxPoint y="270" />
              <mxPoint y="300" />
            </Array>
          </mxGeometry>
        </mxCell>
        <mxCell id="s9KCdLrKtUiWxoVM0cNU-88" value="" style="endArrow=classic;html=1;rounded=0;exitX=1;exitY=0.5;exitDx=0;exitDy=0;" parent="1" source="-pVyr4qSZW9j6nxWmR7E-16" edge="1">
          <mxGeometry width="50" height="50" relative="1" as="geometry">
            <mxPoint x="-29" y="370" as="sourcePoint" />
            <mxPoint x="21" y="320" as="targetPoint" />
            <Array as="points">
              <mxPoint x="-20" y="223" />
              <mxPoint x="-20" y="320" />
            </Array>
          </mxGeometry>
        </mxCell>
        <mxCell id="s9KCdLrKtUiWxoVM0cNU-89" value="" style="rounded=0;whiteSpace=wrap;html=1;" parent="1" vertex="1">
          <mxGeometry x="530" y="803" width="160" height="87" as="geometry" />
        </mxCell>
        <mxCell id="s9KCdLrKtUiWxoVM0cNU-90" value="&lt;div&gt;&lt;b&gt;PR FLUSH UNIT &lt;/b&gt;&lt;/div&gt;&lt;div&gt;&lt;br&gt;&lt;/div&gt;" style="text;html=1;strokeColor=none;fillColor=none;align=center;verticalAlign=middle;whiteSpace=wrap;rounded=0;fontColor=#000000;" parent="1" vertex="1">
          <mxGeometry x="559.69" y="835" width="90.31" height="26" as="geometry" />
        </mxCell>
        <mxCell id="s9KCdLrKtUiWxoVM0cNU-92" value="&lt;font style=&quot;font-size: 8px;&quot;&gt;LU_HAZ_SIGNAL&lt;/font&gt;" style="text;html=1;strokeColor=none;fillColor=none;align=center;verticalAlign=middle;whiteSpace=wrap;rounded=0;" parent="1" vertex="1">
          <mxGeometry x="532.9200000000001" y="809" width="66.39" height="15" as="geometry" />
        </mxCell>
        <mxCell id="s9KCdLrKtUiWxoVM0cNU-94" value="&lt;font style=&quot;font-size: 8px;&quot;&gt;BRANCH_SEL&lt;/font&gt;" style="text;html=1;strokeColor=none;fillColor=none;align=center;verticalAlign=middle;whiteSpace=wrap;rounded=0;" parent="1" vertex="1">
          <mxGeometry x="624.0000000000001" y="869.5" width="66.39" height="15" as="geometry" />
        </mxCell>
        <mxCell id="s9KCdLrKtUiWxoVM0cNU-95" value="&lt;font style=&quot;font-size: 8px;&quot;&gt;IDEX_RESET&lt;/font&gt;" style="text;html=1;strokeColor=none;fillColor=none;align=center;verticalAlign=middle;whiteSpace=wrap;rounded=0;" parent="1" vertex="1">
          <mxGeometry x="627.0000000000001" y="808" width="66.39" height="15" as="geometry" />
        </mxCell>
        <mxCell id="s9KCdLrKtUiWxoVM0cNU-97" value="&lt;font style=&quot;font-size: 8px;&quot;&gt;IFID_RESET&lt;/font&gt;" style="text;html=1;strokeColor=none;fillColor=none;align=center;verticalAlign=middle;whiteSpace=wrap;rounded=0;" parent="1" vertex="1">
          <mxGeometry x="529" y="867" width="60.31" height="15" as="geometry" />
        </mxCell>
        <mxCell id="s9KCdLrKtUiWxoVM0cNU-98" value="&lt;font style=&quot;font-size: 8px;&quot;&gt;IFID_HOLD&lt;/font&gt;" style="text;html=1;strokeColor=none;fillColor=none;align=center;verticalAlign=middle;whiteSpace=wrap;rounded=0;" parent="1" vertex="1">
          <mxGeometry x="526.69" y="854.5" width="60.31" height="15" as="geometry" />
        </mxCell>
        <mxCell id="s9KCdLrKtUiWxoVM0cNU-99" value="" style="endArrow=classic;html=1;rounded=0;exitX=1;exitY=0.75;exitDx=0;exitDy=0;" parent="1" source="-pVyr4qSZW9j6nxWmR7E-25" edge="1">
          <mxGeometry width="50" height="50" relative="1" as="geometry">
            <mxPoint x="1190" y="610" as="sourcePoint" />
            <mxPoint x="90" y="350" as="targetPoint" />
            <Array as="points">
              <mxPoint x="1240" y="545" />
              <mxPoint x="1240" y="960" />
              <mxPoint x="90" y="960" />
            </Array>
          </mxGeometry>
        </mxCell>
        <mxCell id="s9KCdLrKtUiWxoVM0cNU-100" value="" style="endArrow=classic;html=1;rounded=0;entryX=0.786;entryY=1.014;entryDx=0;entryDy=0;entryPerimeter=0;" parent="1" target="-pVyr4qSZW9j6nxWmR7E-3" edge="1">
          <mxGeometry width="50" height="50" relative="1" as="geometry">
            <mxPoint x="1159" y="568" as="sourcePoint" />
            <mxPoint x="37.77777777777778" y="840" as="targetPoint" />
            <Array as="points">
              <mxPoint x="1159" y="980" />
              <mxPoint x="60" y="980" />
              <mxPoint x="60" y="340" />
            </Array>
          </mxGeometry>
        </mxCell>
        <mxCell id="s9KCdLrKtUiWxoVM0cNU-101" value="" style="endArrow=classic;html=1;rounded=0;entryX=1;entryY=0.75;entryDx=0;entryDy=0;startArrow=oval;startFill=1;" parent="1" target="s9KCdLrKtUiWxoVM0cNU-94" edge="1">
          <mxGeometry width="50" height="50" relative="1" as="geometry">
            <mxPoint x="720" y="960" as="sourcePoint" />
            <mxPoint x="730" y="880" as="targetPoint" />
            <Array as="points">
              <mxPoint x="720" y="880" />
            </Array>
          </mxGeometry>
        </mxCell>
        <mxCell id="s9KCdLrKtUiWxoVM0cNU-102" value="" style="endArrow=classic;html=1;rounded=0;exitX=0;exitY=0.75;exitDx=0;exitDy=0;entryX=0;entryY=0.5;entryDx=0;entryDy=0;" parent="1" target="s9KCdLrKtUiWxoVM0cNU-79" edge="1">
          <mxGeometry width="50" height="50" relative="1" as="geometry">
            <mxPoint x="489" y="-291" as="sourcePoint" />
            <mxPoint x="37" y="279" as="targetPoint" />
            <Array as="points">
              <mxPoint x="37" y="-291" />
            </Array>
          </mxGeometry>
        </mxCell>
        <mxCell id="s9KCdLrKtUiWxoVM0cNU-103" value="" style="endArrow=classic;html=1;rounded=0;startArrow=oval;startFill=1;" parent="1" edge="1">
          <mxGeometry width="50" height="50" relative="1" as="geometry">
            <mxPoint x="418" y="-290" as="sourcePoint" />
            <mxPoint x="530" y="820" as="targetPoint" />
            <Array as="points">
              <mxPoint x="418" y="820" />
            </Array>
          </mxGeometry>
        </mxCell>
        <mxCell id="s9KCdLrKtUiWxoVM0cNU-105" value="" style="endArrow=classic;html=1;rounded=0;entryX=0.387;entryY=1.12;entryDx=0;entryDy=0;entryPerimeter=0;" parent="1" edge="1">
          <mxGeometry width="50" height="50" relative="1" as="geometry">
            <mxPoint x="530" y="880" as="sourcePoint" />
            <mxPoint x="359.3000000000001" y="720.0000000000001" as="targetPoint" />
            <Array as="points">
              <mxPoint x="359" y="880" />
            </Array>
          </mxGeometry>
        </mxCell>
        <mxCell id="s9KCdLrKtUiWxoVM0cNU-106" value="" style="endArrow=classic;html=1;rounded=0;exitX=0.01;exitY=-0.156;exitDx=0;exitDy=0;exitPerimeter=0;" parent="1" source="s9KCdLrKtUiWxoVM0cNU-97" edge="1">
          <mxGeometry width="50" height="50" relative="1" as="geometry">
            <mxPoint x="527.9747299999999" y="865" as="sourcePoint" />
            <mxPoint x="390" y="721" as="targetPoint" />
            <Array as="points">
              <mxPoint x="390" y="865" />
            </Array>
          </mxGeometry>
        </mxCell>
        <mxCell id="s9KCdLrKtUiWxoVM0cNU-108" value="4" style="text;html=1;align=center;verticalAlign=middle;whiteSpace=wrap;rounded=0;" parent="1" vertex="1">
          <mxGeometry x="1450" y="251" width="60" height="30" as="geometry" />
        </mxCell>
        <mxCell id="s9KCdLrKtUiWxoVM0cNU-109" value="" style="endArrow=classic;html=1;rounded=0;" parent="1" edge="1">
          <mxGeometry width="50" height="50" relative="1" as="geometry">
            <mxPoint x="690" y="820" as="sourcePoint" />
            <mxPoint x="740" y="725" as="targetPoint" />
            <Array as="points">
              <mxPoint x="740" y="820" />
            </Array>
          </mxGeometry>
        </mxCell>
        <mxCell id="3l47Nc2kNrJPuL0uOXAb-2" style="edgeStyle=orthogonalEdgeStyle;rounded=0;orthogonalLoop=1;jettySize=auto;html=1;exitX=1;exitY=0.25;exitDx=0;exitDy=0;entryX=0.5;entryY=0;entryDx=0;entryDy=0;" parent="1" source="-pVyr4qSZW9j6nxWmR7E-26" target="-pVyr4qSZW9j6nxWmR7E-2" edge="1">
          <mxGeometry relative="1" as="geometry">
            <mxPoint x="170" y="-180" as="targetPoint" />
            <Array as="points">
              <mxPoint x="1813" y="416" />
              <mxPoint x="1813" y="-480" />
              <mxPoint x="120" y="-480" />
              <mxPoint x="120" y="260" />
              <mxPoint x="155" y="260" />
            </Array>
          </mxGeometry>
        </mxCell>
        <mxCell id="3l47Nc2kNrJPuL0uOXAb-3" value="" style="endArrow=classic;html=1;rounded=0;entryX=0.5;entryY=0;entryDx=0;entryDy=0;startArrow=oval;startFill=1;" parent="1" target="HLhZyPjLY0RMyOh3kIm4-85" edge="1">
          <mxGeometry width="50" height="50" relative="1" as="geometry">
            <mxPoint x="375" y="-480" as="sourcePoint" />
            <mxPoint x="580" y="-300" as="targetPoint" />
          </mxGeometry>
        </mxCell>
        <mxCell id="3l47Nc2kNrJPuL0uOXAb-4" value="" style="endArrow=classic;html=1;rounded=0;entryX=0.5;entryY=0;entryDx=0;entryDy=0;startArrow=oval;startFill=1;" parent="1" target="-pVyr4qSZW9j6nxWmR7E-22" edge="1">
          <mxGeometry width="50" height="50" relative="1" as="geometry">
            <mxPoint x="745" y="-480" as="sourcePoint" />
            <mxPoint x="840" y="-270" as="targetPoint" />
          </mxGeometry>
        </mxCell>
        <mxCell id="3l47Nc2kNrJPuL0uOXAb-5" value="" style="endArrow=classic;html=1;rounded=0;entryX=0.5;entryY=0;entryDx=0;entryDy=0;startArrow=oval;startFill=1;" parent="1" target="HLhZyPjLY0RMyOh3kIm4-275" edge="1">
          <mxGeometry width="50" height="50" relative="1" as="geometry">
            <mxPoint x="1300" y="-480" as="sourcePoint" />
            <mxPoint x="1350" y="-270" as="targetPoint" />
          </mxGeometry>
        </mxCell>
        <mxCell id="3l47Nc2kNrJPuL0uOXAb-9" value="BUSYWAIT" style="text;html=1;strokeColor=none;fillColor=none;align=center;verticalAlign=middle;whiteSpace=wrap;rounded=0;" parent="1" vertex="1">
          <mxGeometry x="230" y="335" width="60" height="30" as="geometry" />
        </mxCell>
        <mxCell id="3l47Nc2kNrJPuL0uOXAb-10" value="&lt;div style=&quot;line-height: 40%;&quot;&gt;&lt;span style=&quot;font-size: 5px;&quot;&gt;BUSYWAIT_IMEM&lt;/span&gt;&lt;/div&gt;" style="rounded=0;whiteSpace=wrap;html=1;fillColor=#eeeeee;strokeColor=#36393d;horizontal=1;" parent="1" vertex="1">
          <mxGeometry x="350" y="371.25" width="50" height="20" as="geometry" />
        </mxCell>
        <mxCell id="3l47Nc2kNrJPuL0uOXAb-11" value="&lt;div style=&quot;line-height: 40%;&quot;&gt;&lt;font style=&quot;font-size: 5px;&quot; color=&quot;#000000&quot;&gt;BUSYWAIT&lt;/font&gt;&lt;/div&gt;" style="rounded=0;whiteSpace=wrap;html=1;fillColor=#eeeeee;strokeColor=#36393d;horizontal=1;" parent="1" vertex="1">
          <mxGeometry x="350" y="-240" width="50" height="20" as="geometry" />
        </mxCell>
        <mxCell id="-I9MUBenOoTtmsug1_GX-1" value="ZGK_SIGNAL" style="text;html=1;strokeColor=none;fillColor=none;align=center;verticalAlign=middle;whiteSpace=wrap;rounded=0;" vertex="1" parent="1">
          <mxGeometry x="1145.3300000000002" y="477" width="30" height="20" as="geometry" />
        </mxCell>
        <mxCell id="-I9MUBenOoTtmsug1_GX-3" value="FUNC3" style="text;html=1;strokeColor=none;fillColor=none;align=center;verticalAlign=middle;whiteSpace=wrap;rounded=0;" vertex="1" parent="1">
          <mxGeometry x="1051.6299999999999" y="546" width="30" height="15" as="geometry" />
        </mxCell>
        <mxCell id="-I9MUBenOoTtmsug1_GX-5" value="" style="endArrow=classic;html=1;rounded=0;entryX=0;entryY=0.5;entryDx=0;entryDy=0;startArrow=oval;startFill=1;" edge="1" parent="1">
          <mxGeometry width="50" height="50" relative="1" as="geometry">
            <mxPoint x="440.5" y="581" as="sourcePoint" />
            <mxPoint x="720.5" y="580" as="targetPoint" />
          </mxGeometry>
        </mxCell>
        <mxCell id="-I9MUBenOoTtmsug1_GX-6" value="" style="endArrow=classic;html=1;rounded=0;exitX=1;exitY=0.5;exitDx=0;exitDy=0;" edge="1" parent="1" source="-I9MUBenOoTtmsug1_GX-4">
          <mxGeometry width="50" height="50" relative="1" as="geometry">
            <mxPoint x="770" y="585" as="sourcePoint" />
            <mxPoint x="1040" y="555" as="targetPoint" />
            <Array as="points">
              <mxPoint x="960" y="580" />
              <mxPoint x="960" y="555" />
            </Array>
          </mxGeometry>
        </mxCell>
        <mxCell id="-I9MUBenOoTtmsug1_GX-7" value="" style="endArrow=classic;html=1;rounded=0;exitX=1;exitY=0.75;exitDx=0;exitDy=0;" edge="1" parent="1">
          <mxGeometry width="50" height="50" relative="1" as="geometry">
            <mxPoint x="770" y="55" as="sourcePoint" />
            <mxPoint x="1000" y="390" as="targetPoint" />
            <Array as="points">
              <mxPoint x="1000" y="55" />
            </Array>
          </mxGeometry>
        </mxCell>
        <mxCell id="-I9MUBenOoTtmsug1_GX-8" value="" style="endArrow=classic;html=1;rounded=0;entryX=0;entryY=0.25;entryDx=0;entryDy=0;startArrow=none;startFill=0;" edge="1" parent="1" target="-pVyr4qSZW9j6nxWmR7E-49">
          <mxGeometry width="50" height="50" relative="1" as="geometry">
            <mxPoint x="770" y="80" as="sourcePoint" />
            <mxPoint x="939.6875" y="288.125" as="targetPoint" />
            <Array as="points">
              <mxPoint x="940" y="80" />
            </Array>
          </mxGeometry>
        </mxCell>
        <mxCell id="-pVyr4qSZW9j6nxWmR7E-39" value="&lt;div style=&quot;font-size: 8px;&quot;&gt;&lt;font style=&quot;font-size: 8px;&quot; color=&quot;#000000&quot;&gt;OP1&lt;/font&gt;&lt;/div&gt;&lt;div style=&quot;font-size: 8px;&quot;&gt;&lt;font style=&quot;font-size: 8px;&quot; color=&quot;#000000&quot;&gt;SEL&lt;/font&gt;&lt;/div&gt;&lt;div style=&quot;font-size: 8px;&quot;&gt;&lt;font style=&quot;font-size: 8px;&quot; color=&quot;#000000&quot;&gt;MUX&lt;br&gt;&lt;/font&gt;&lt;/div&gt;" style="shape=trapezoid;perimeter=trapezoidPerimeter;whiteSpace=wrap;html=1;fixedSize=1;fillColor=#eeeeee;strokeColor=#36393d;rotation=90;" parent="1" vertex="1">
          <mxGeometry x="901" y="310" width="70" height="30" as="geometry" />
        </mxCell>
        <mxCell id="-I9MUBenOoTtmsug1_GX-11" value="" style="endArrow=classic;html=1;rounded=0;" edge="1" parent="1">
          <mxGeometry width="50" height="50" relative="1" as="geometry">
            <mxPoint x="770" y="100" as="sourcePoint" />
            <mxPoint x="940" y="100" as="targetPoint" />
          </mxGeometry>
        </mxCell>
        <mxCell id="-I9MUBenOoTtmsug1_GX-12" value="" style="endArrow=classic;html=1;rounded=0;" edge="1" parent="1">
          <mxGeometry width="50" height="50" relative="1" as="geometry">
            <mxPoint x="940" y="292" as="sourcePoint" />
            <mxPoint x="940" y="302" as="targetPoint" />
          </mxGeometry>
        </mxCell>
        <mxCell id="-I9MUBenOoTtmsug1_GX-13" value="BJ_CTRL" style="text;html=1;strokeColor=none;fillColor=none;align=center;verticalAlign=middle;whiteSpace=wrap;rounded=0;" vertex="1" parent="1">
          <mxGeometry x="1063.63" y="476" width="30" height="20" as="geometry" />
        </mxCell>
        <mxCell id="-I9MUBenOoTtmsug1_GX-14" value="" style="endArrow=classic;html=1;rounded=0;" edge="1" parent="1" target="-pVyr4qSZW9j6nxWmR7E-24">
          <mxGeometry width="50" height="50" relative="1" as="geometry">
            <mxPoint x="770" y="35" as="sourcePoint" />
            <mxPoint x="1100" y="230" as="targetPoint" />
            <Array as="points">
              <mxPoint x="1090" y="35" />
            </Array>
          </mxGeometry>
        </mxCell>
        <mxCell id="-I9MUBenOoTtmsug1_GX-15" value="" style="endArrow=classic;html=1;rounded=0;exitX=1;exitY=0.5;exitDx=0;exitDy=0;" edge="1" parent="1" source="HLhZyPjLY0RMyOh3kIm4-38">
          <mxGeometry width="50" height="50" relative="1" as="geometry">
            <mxPoint x="960" y="360" as="sourcePoint" />
            <mxPoint x="1040" y="488" as="targetPoint" />
            <Array as="points">
              <mxPoint x="960" y="14" />
              <mxPoint x="960" y="488" />
            </Array>
          </mxGeometry>
        </mxCell>
        <mxCell id="-I9MUBenOoTtmsug1_GX-21" value="" style="group;fillColor=#f5f5f5;fontColor=#333333;strokeColor=#666666;container=0;" vertex="1" connectable="0" parent="1">
          <mxGeometry x="350" y="-210" width="50" height="20" as="geometry" />
        </mxCell>
        <mxCell id="-I9MUBenOoTtmsug1_GX-87" value="" style="triangle;whiteSpace=wrap;html=1;rotation=-90;fillColor=#eeeeee;strokeColor=#36393d;" vertex="1" parent="1">
          <mxGeometry x="577" y="407" width="10" height="16" as="geometry" />
        </mxCell>
        <mxCell id="-I9MUBenOoTtmsug1_GX-18" value="&lt;div style=&quot;line-height: 40%;&quot;&gt;&lt;font style=&quot;font-size: 5px;&quot; color=&quot;#000000&quot;&gt;CLK&lt;/font&gt;&lt;/div&gt;" style="rounded=0;whiteSpace=wrap;html=1;fillColor=#eeeeee;strokeColor=#36393d;horizontal=1;" vertex="1" parent="1">
          <mxGeometry x="350" y="-210" width="50" height="20" as="geometry" />
        </mxCell>
        <mxCell id="-I9MUBenOoTtmsug1_GX-16" value="" style="triangle;whiteSpace=wrap;html=1;fillColor=#eeeeee;strokeColor=#36393d;" vertex="1" parent="1">
          <mxGeometry x="350" y="-208" width="10" height="16" as="geometry" />
        </mxCell>
        <mxCell id="-I9MUBenOoTtmsug1_GX-88" value="" style="triangle;whiteSpace=wrap;html=1;rotation=90;fillColor=#eeeeee;strokeColor=#36393d;" vertex="1" parent="1">
          <mxGeometry x="255" y="277" width="10" height="16" as="geometry" />
        </mxCell>
      </root>
    </mxGraphModel>
  </diagram>
</mxfile>
